<?xml version='1.0' encoding='UTF-8' standalone='no'?>
<!-- Created with Fritzing (http://www.fritzing.org/) -->
<svg width="10.7934in" x="0in" version="1.2" y="0in" xmlns="http://www.w3.org/2000/svg" height="5.91788in" viewBox="0 0 777.125 426.087" baseProfile="tiny" xmlns:svg="http://www.w3.org/2000/svg">
 <g  id="watermark" stroke-width="0">
  <g  stroke-width="0">
   <path fill="#8C8C8C"  stroke-width="0" d="M669.308,423.759L667.383,418.195L667.348,418.195c0.017,0.214,0.032,0.427,0.044,0.64c0.012,0.183,0.021,0.375,0.028,0.574c0.007,0.203,0.011,0.385,0.011,0.551l0,3.8L666.683,423.76L666.683,417.404l1.199,0l1.791,5.181l0.025,0l1.8,-5.181L672.698,417.404l0,6.354L671.889,423.758l0,-3.854c0,-0.15,0.003,-0.324,0.009,-0.518s0.013,-0.38,0.021,-0.557c0.012,-0.207,0.021,-0.416,0.029,-0.625L671.916,418.204L669.972,423.759L669.308,423.759z"/>
   <path fill="#8C8C8C"  stroke-width="0" d="M677.008,423.759l-0.16,-0.661l-0.035,0c-0.095,0.131,-0.19,0.243,-0.286,0.338c-0.095,0.095,-0.2,0.172,-0.313,0.231c-0.113,0.062,-0.239,0.106,-0.378,0.136c-0.141,0.028,-0.3,0.042,-0.482,0.042c-0.2,0,-0.384,-0.026,-0.552,-0.084c-0.168,-0.057,-0.314,-0.144,-0.438,-0.261c-0.122,-0.116,-0.219,-0.265,-0.288,-0.443S673.972,422.669,673.972,422.424c0,-0.475,0.167,-0.841,0.501,-1.095c0.335,-0.256,0.845,-0.394,1.528,-0.418l0.799,-0.029l0,-0.301c0,-0.193,-0.021,-0.356,-0.063,-0.486s-0.103,-0.234,-0.183,-0.314s-0.178,-0.138,-0.295,-0.172c-0.117,-0.035,-0.251,-0.052,-0.402,-0.052c-0.241,0,-0.464,0.034,-0.671,0.104c-0.207,0.068,-0.407,0.152,-0.597,0.25L674.31,419.318c0.214,-0.117,0.453,-0.217,0.717,-0.298c0.264,-0.079,0.54,-0.12,0.83,-0.12c0.296,0,0.551,0.029,0.768,0.09c0.216,0.059,0.395,0.151,0.534,0.28c0.141,0.13,0.247,0.294,0.316,0.494c0.07,0.199,0.104,0.44,0.104,0.726l0,3.269L677.008,423.759L677.008,423.759zM675.557,423.208c0.178,0,0.341,-0.028,0.491,-0.084c0.149,-0.055,0.282,-0.138,0.391,-0.249c0.11,-0.111,0.196,-0.252,0.258,-0.422c0.063,-0.17,0.094,-0.369,0.094,-0.599l0,-0.43l-0.621,0.03c-0.262,0.012,-0.48,0.041,-0.656,0.086c-0.175,0.047,-0.317,0.113,-0.423,0.193c-0.105,0.084,-0.183,0.185,-0.229,0.301c-0.046,0.117,-0.068,0.25,-0.068,0.398c0,0.268,0.069,0.462,0.211,0.586C675.144,423.145,675.328,423.208,675.557,423.208z"/>
   <path fill="#8C8C8C"  stroke-width="0" d="M681.99,423.12l-0.034,0c-0.063,0.099,-0.139,0.191,-0.224,0.281c-0.085,0.088,-0.184,0.165,-0.296,0.231c-0.111,0.066,-0.237,0.118,-0.376,0.156c-0.139,0.037,-0.295,0.056,-0.47,0.056c-0.271,0,-0.517,-0.051,-0.738,-0.154c-0.223,-0.105,-0.416,-0.262,-0.575,-0.469s-0.282,-0.464,-0.369,-0.771c-0.087,-0.309,-0.13,-0.664,-0.13,-1.069c0,-0.408,0.043,-0.767,0.13,-1.076c0.086,-0.31,0.209,-0.567,0.369,-0.774c0.159,-0.209,0.352,-0.367,0.575,-0.473c0.222,-0.105,0.469,-0.158,0.738,-0.158c0.171,0,0.327,0.02,0.466,0.057s0.264,0.088,0.376,0.152c0.112,0.063,0.211,0.137,0.297,0.221s0.163,0.172,0.227,0.266l0.052,0c-0.009,-0.1,-0.018,-0.191,-0.026,-0.283c-0.006,-0.074,-0.012,-0.152,-0.018,-0.232c-0.005,-0.078,-0.009,-0.143,-0.009,-0.188L681.955,416.996l0.792,0l0,6.763l-0.641,0L681.99,423.12zM680.742,423.191c0.221,0,0.407,-0.033,0.56,-0.102c0.151,-0.065,0.274,-0.168,0.37,-0.304c0.094,-0.136,0.163,-0.308,0.209,-0.512c0.044,-0.204,0.069,-0.442,0.076,-0.716l0,-0.177c0,-0.292,-0.02,-0.552,-0.059,-0.78c-0.04,-0.229,-0.105,-0.418,-0.2,-0.574c-0.094,-0.154,-0.219,-0.271,-0.376,-0.351c-0.156,-0.08,-0.352,-0.119,-0.586,-0.119c-0.391,0,-0.679,0.157,-0.861,0.474c-0.185,0.315,-0.277,0.771,-0.277,1.359c0,0.605,0.092,1.058,0.277,1.354C680.055,423.041,680.345,423.191,680.742,423.191z"/>
   <path fill="#8C8C8C"  stroke-width="0" d="M686.144,423.845c-0.318,0,-0.609,-0.053,-0.874,-0.16c-0.263,-0.106,-0.49,-0.264,-0.68,-0.469c-0.19,-0.207,-0.338,-0.461,-0.442,-0.766c-0.104,-0.306,-0.156,-0.651,-0.156,-1.045s0.049,-0.744,0.144,-1.055c0.096,-0.311,0.229,-0.574,0.405,-0.789c0.174,-0.216,0.382,-0.381,0.623,-0.492c0.241,-0.113,0.51,-0.17,0.802,-0.17c0.287,0,0.545,0.051,0.772,0.153c0.229,0.104,0.423,0.248,0.583,0.435c0.159,0.188,0.282,0.412,0.367,0.674c0.087,0.263,0.13,0.554,0.13,0.873l0,0.49l-3.008,0c0.015,0.559,0.133,0.971,0.354,1.234c0.222,0.263,0.551,0.396,0.987,0.396c0.149,0,0.285,-0.008,0.411,-0.021s0.248,-0.035,0.365,-0.063c0.118,-0.026,0.23,-0.063,0.342,-0.104s0.222,-0.089,0.334,-0.142l0,0.704c-0.116,0.055,-0.229,0.104,-0.341,0.144c-0.112,0.041,-0.226,0.074,-0.343,0.102c-0.117,0.024,-0.239,0.045,-0.365,0.056S686.293,423.845,686.144,423.845zM685.949,419.557c-0.331,0,-0.592,0.112,-0.783,0.339c-0.193,0.227,-0.307,0.555,-0.338,0.985l2.14,0c0,-0.196,-0.021,-0.378,-0.06,-0.541c-0.039,-0.164,-0.1,-0.304,-0.183,-0.419s-0.187,-0.205,-0.315,-0.27C686.282,419.587,686.129,419.557,685.949,419.557z"/>
   <path fill="#8C8C8C"  stroke-width="0" d="M694.958,423.759l-0.729,-2.678c-0.012,-0.053,-0.026,-0.111,-0.044,-0.176c-0.017,-0.065,-0.034,-0.136,-0.051,-0.207c-0.019,-0.072,-0.036,-0.146,-0.055,-0.223c-0.02,-0.074,-0.037,-0.148,-0.055,-0.222c-0.041,-0.169,-0.083,-0.341,-0.126,-0.521l-0.024,0c-0.041,0.182,-0.08,0.356,-0.117,0.524c-0.032,0.146,-0.066,0.294,-0.104,0.448c-0.037,0.152,-0.069,0.283,-0.103,0.391l-0.75,2.66l-0.917,0l-1.221,-4.771l0.83,0l0.57,2.539c0.029,0.129,0.059,0.27,0.086,0.423c0.028,0.151,0.057,0.303,0.082,0.452c0.026,0.148,0.05,0.288,0.07,0.421c0.02,0.132,0.037,0.238,0.049,0.322l0.025,0c0.015,-0.074,0.034,-0.177,0.059,-0.302c0.025,-0.126,0.052,-0.26,0.083,-0.399c0.031,-0.141,0.063,-0.28,0.093,-0.417c0.032,-0.139,0.063,-0.254,0.091,-0.351l0.778,-2.69l0.853,0l0.748,2.69c0.025,0.098,0.056,0.215,0.089,0.348c0.033,0.135,0.065,0.27,0.098,0.407c0.032,0.139,0.061,0.271,0.087,0.397c0.025,0.127,0.045,0.231,0.056,0.315l0.026,0c0.01,-0.074,0.022,-0.177,0.042,-0.302c0.02,-0.126,0.042,-0.265,0.067,-0.415c0.025,-0.149,0.054,-0.306,0.084,-0.464c0.03,-0.157,0.062,-0.306,0.094,-0.44L696.318,418.986l0.809,0l-1.234,4.771L694.958,423.757L694.958,423.759z"/>
   <path fill="#8C8C8C"  stroke-width="0" d="M697.913,417.696c0,-0.175,0.045,-0.3,0.133,-0.379c0.088,-0.078,0.197,-0.117,0.328,-0.117c0.063,0,0.123,0.011,0.181,0.028c0.056,0.019,0.104,0.049,0.147,0.089c0.042,0.041,0.075,0.092,0.101,0.154c0.023,0.063,0.037,0.137,0.037,0.224c0,0.168,-0.045,0.293,-0.138,0.376c-0.092,0.083,-0.2,0.123,-0.327,0.123c-0.131,0,-0.24,-0.04,-0.328,-0.12C697.959,417.993,697.913,417.866,697.913,417.696zM698.765,423.759l-0.791,0L697.974,418.986l0.791,0L698.765,423.759z"/>
   <path fill="#8C8C8C"  stroke-width="0" d="M701.721,423.198c0.052,0,0.111,-0.003,0.176,-0.01c0.066,-0.006,0.128,-0.013,0.189,-0.021c0.061,-0.009,0.116,-0.019,0.167,-0.031c0.051,-0.011,0.089,-0.021,0.115,-0.028l0,0.6c-0.037,0.017,-0.085,0.035,-0.144,0.052c-0.059,0.018,-0.122,0.033,-0.191,0.046c-0.068,0.015,-0.142,0.022,-0.217,0.03s-0.148,0.011,-0.221,0.011c-0.18,0,-0.347,-0.021,-0.5,-0.068c-0.153,-0.048,-0.286,-0.126,-0.397,-0.239c-0.111,-0.112,-0.198,-0.267,-0.263,-0.458c-0.063,-0.192,-0.095,-0.437,-0.095,-0.729L700.34,419.582l-0.674,0L699.666,419.23l0.673,-0.339l0.339,-0.999l0.456,0l0,1.096l1.199,0l0,0.596l-1.199,0l0,2.769c0,0.281,0.045,0.492,0.137,0.636C701.363,423.127,701.512,423.198,701.721,423.198z"/>
   <path fill="#8C8C8C"  stroke-width="0" d="M706.276,423.759l0,-3.073c0,-0.377,-0.076,-0.659,-0.228,-0.848c-0.152,-0.188,-0.391,-0.282,-0.715,-0.282c-0.234,0,-0.433,0.037,-0.592,0.111c-0.158,0.076,-0.286,0.188,-0.384,0.336c-0.097,0.148,-0.166,0.328,-0.208,0.544c-0.042,0.214,-0.063,0.461,-0.063,0.739l0,2.473l-0.791,0L703.295,416.996l0.791,0l0,2.008l-0.034,0.626l0.044,0c0.072,-0.124,0.158,-0.232,0.258,-0.323s0.209,-0.167,0.328,-0.229c0.118,-0.061,0.245,-0.104,0.378,-0.135c0.133,-0.027,0.27,-0.043,0.408,-0.043c0.531,0,0.93,0.139,1.198,0.416c0.268,0.275,0.401,0.719,0.401,1.326l0,3.117L706.276,423.759L706.276,423.759z"/>
  </g>
  <g  stroke-width="0">
   <path fill="#8C8C8C"  stroke-width="0" d="M728.036,423.743l-1.324,0L726.712,417.389l3.642,0l0,1.104l-2.316,0l0,1.639l2.156,0l0,1.1l-2.156,0L728.036,423.743L728.036,423.743z"/>
   <path fill="#8C8C8C"  stroke-width="0" d="M734.069,418.793c0.035,0,0.074,0.002,0.116,0.002c0.042,0.002,0.083,0.006,0.12,0.01c0.041,0.005,0.076,0.009,0.11,0.014c0.031,0.004,0.059,0.01,0.075,0.016l0,1.244c-0.022,-0.008,-0.056,-0.012,-0.095,-0.018c-0.04,-0.007,-0.083,-0.012,-0.128,-0.018c-0.045,-0.004,-0.09,-0.006,-0.133,-0.008c-0.044,-0.002,-0.08,-0.002,-0.108,-0.002c-0.171,0,-0.328,0.021,-0.472,0.064c-0.146,0.043,-0.269,0.113,-0.37,0.211s-0.183,0.225,-0.239,0.383c-0.057,0.157,-0.084,0.352,-0.084,0.581l0,2.474l-1.326,0L731.535,418.884l1.005,0l0.194,0.73l0.066,0c0.068,-0.125,0.145,-0.238,0.226,-0.34c0.081,-0.103,0.172,-0.189,0.272,-0.259c0.1,-0.071,0.212,-0.126,0.338,-0.165C733.762,418.813,733.908,418.793,734.069,418.793z"/>
   <path fill="#8C8C8C"  stroke-width="0" d="M735.387,417.628c0,-0.125,0.018,-0.228,0.056,-0.311c0.038,-0.084,0.089,-0.15,0.154,-0.2c0.065,-0.051,0.142,-0.086,0.229,-0.106c0.088,-0.02,0.184,-0.03,0.281,-0.03c0.099,0,0.191,0.01,0.277,0.03c0.088,0.02,0.164,0.055,0.229,0.106c0.066,0.05,0.117,0.116,0.156,0.2c0.04,0.083,0.059,0.186,0.059,0.311c0,0.122,-0.019,0.225,-0.059,0.309c-0.039,0.084,-0.09,0.151,-0.156,0.203c-0.063,0.05,-0.142,0.086,-0.229,0.108c-0.086,0.021,-0.18,0.032,-0.277,0.032c-0.099,0,-0.191,-0.012,-0.281,-0.032c-0.088,-0.021,-0.164,-0.059,-0.229,-0.108c-0.065,-0.051,-0.116,-0.119,-0.154,-0.203C735.406,417.853,735.387,417.75,735.387,417.628zM736.769,423.743l-1.325,0L735.444,418.884l1.325,0L736.769,423.743z"/>
   <path fill="#8C8C8C"  stroke-width="0" d="M740.178,422.774c0.13,0,0.254,-0.016,0.371,-0.045c0.117,-0.027,0.235,-0.064,0.357,-0.107l0,0.986c-0.124,0.063,-0.278,0.116,-0.463,0.157c-0.184,0.042,-0.385,0.063,-0.603,0.063c-0.211,0,-0.408,-0.024,-0.59,-0.073c-0.185,-0.05,-0.342,-0.137,-0.476,-0.259c-0.133,-0.123,-0.237,-0.288,-0.313,-0.495c-0.077,-0.208,-0.114,-0.468,-0.114,-0.781L738.347,419.879l-0.636,0L737.711,419.318l0.729,-0.443l0.383,-1.024l0.848,0l0,1.034l1.184,0l0,0.995l-1.184,0l0,2.343c0,0.188,0.048,0.327,0.141,0.417C739.905,422.729,740.027,422.774,740.178,422.774z"/>
   <path fill="#8C8C8C"  stroke-width="0" d="M745.051,423.743L741.478,423.743l0,-0.781l1.985,-3.064l-1.853,0L741.61,418.884l3.355,0l0,0.859l-1.92,2.985l2.004,0L745.051,423.743L745.051,423.743z"/>
   <path fill="#8C8C8C"  stroke-width="0" d="M745.99,417.628c0,-0.125,0.02,-0.228,0.057,-0.311c0.038,-0.084,0.09,-0.15,0.153,-0.2c0.065,-0.051,0.144,-0.086,0.23,-0.106s0.182,-0.03,0.28,-0.03c0.098,0,0.19,0.01,0.277,0.03c0.088,0.02,0.164,0.055,0.229,0.106c0.064,0.05,0.117,0.116,0.156,0.2c0.038,0.083,0.059,0.186,0.059,0.311c0,0.122,-0.021,0.225,-0.059,0.309c-0.039,0.084,-0.092,0.151,-0.156,0.203c-0.064,0.05,-0.143,0.086,-0.229,0.108c-0.086,0.021,-0.18,0.032,-0.277,0.032c-0.099,0,-0.192,-0.012,-0.28,-0.032c-0.088,-0.021,-0.165,-0.059,-0.23,-0.108c-0.063,-0.051,-0.115,-0.119,-0.153,-0.203C746.009,417.853,745.99,417.75,745.99,417.628zM747.372,423.743L746.048,423.743L746.048,418.884l1.324,0L747.372,423.743z"/>
   <path fill="#8C8C8C"  stroke-width="0" d="M753.022,423.743L751.698,423.743l0,-2.839c0,-0.351,-0.053,-0.613,-0.158,-0.787c-0.105,-0.176,-0.274,-0.265,-0.508,-0.265c-0.173,0,-0.317,0.035,-0.434,0.104c-0.116,0.07,-0.209,0.173,-0.276,0.31c-0.066,0.136,-0.115,0.304,-0.146,0.504c-0.029,0.2,-0.043,0.429,-0.043,0.687l0,2.286L748.808,423.743L748.808,418.884l1.012,0l0.181,0.621l0.073,0c0.069,-0.124,0.153,-0.23,0.253,-0.321c0.102,-0.089,0.21,-0.163,0.328,-0.221s0.245,-0.103,0.378,-0.128c0.136,-0.028,0.271,-0.043,0.409,-0.043c0.237,0,0.454,0.033,0.647,0.104c0.194,0.067,0.36,0.174,0.5,0.318c0.141,0.146,0.247,0.328,0.321,0.555c0.075,0.225,0.113,0.492,0.113,0.807l0,3.168L753.022,423.743L753.022,423.743z"/>
   <path fill="#8C8C8C"  stroke-width="0" d="M758.452,418.893l0,0.722l-0.708,0.221c0.059,0.1,0.1,0.201,0.122,0.308c0.021,0.106,0.033,0.22,0.033,0.343c0,0.246,-0.039,0.471,-0.116,0.676c-0.078,0.203,-0.193,0.379,-0.349,0.522c-0.152,0.146,-0.346,0.258,-0.578,0.337c-0.23,0.08,-0.5,0.119,-0.808,0.119c-0.067,0,-0.141,-0.003,-0.218,-0.012c-0.078,-0.007,-0.137,-0.015,-0.175,-0.021c-0.057,0.049,-0.104,0.101,-0.137,0.152c-0.033,0.054,-0.049,0.117,-0.049,0.193c0,0.061,0.018,0.108,0.056,0.146s0.087,0.065,0.147,0.087c0.06,0.022,0.133,0.036,0.214,0.044s0.165,0.012,0.251,0.012l0.756,0c0.236,0,0.446,0.025,0.631,0.081c0.186,0.055,0.342,0.135,0.472,0.246c0.129,0.109,0.229,0.249,0.299,0.419c0.069,0.169,0.104,0.372,0.104,0.605c0,0.275,-0.054,0.523,-0.164,0.745c-0.109,0.224,-0.274,0.41,-0.494,0.565c-0.219,0.154,-0.488,0.273,-0.813,0.355c-0.324,0.082,-0.699,0.123,-1.126,0.123c-0.329,0,-0.618,-0.031,-0.864,-0.094c-0.247,-0.063,-0.451,-0.15,-0.617,-0.27c-0.165,-0.116,-0.288,-0.258,-0.371,-0.424c-0.084,-0.164,-0.125,-0.353,-0.125,-0.561c0,-0.177,0.031,-0.33,0.093,-0.46c0.061,-0.131,0.143,-0.243,0.243,-0.336c0.102,-0.093,0.218,-0.168,0.347,-0.227c0.129,-0.058,0.262,-0.103,0.396,-0.134c-0.061,-0.026,-0.12,-0.063,-0.181,-0.109c-0.059,-0.047,-0.113,-0.1,-0.161,-0.159c-0.047,-0.063,-0.086,-0.129,-0.116,-0.203c-0.031,-0.072,-0.047,-0.15,-0.047,-0.23c0,-0.093,0.015,-0.178,0.04,-0.252c0.029,-0.076,0.068,-0.146,0.12,-0.212c0.052,-0.064,0.117,-0.126,0.196,-0.184c0.078,-0.06,0.166,-0.117,0.264,-0.18c-0.254,-0.11,-0.456,-0.287,-0.604,-0.53c-0.15,-0.244,-0.225,-0.529,-0.225,-0.859c0,-0.26,0.04,-0.494,0.121,-0.699c0.081,-0.207,0.2,-0.381,0.356,-0.523c0.155,-0.144,0.35,-0.252,0.582,-0.328c0.231,-0.076,0.499,-0.113,0.801,-0.113c0.057,0,0.122,0.004,0.194,0.012s0.145,0.018,0.216,0.025c0.07,0.01,0.137,0.021,0.196,0.033c0.061,0.01,0.109,0.021,0.146,0.029L758.452,418.893L758.452,418.893zM754.975,424.43c0,0.073,0.017,0.145,0.047,0.211c0.03,0.068,0.08,0.129,0.15,0.182c0.068,0.052,0.16,0.094,0.272,0.124c0.113,0.03,0.252,0.046,0.417,0.046c0.452,0,0.792,-0.063,1.021,-0.191c0.229,-0.127,0.343,-0.298,0.343,-0.514c0,-0.183,-0.07,-0.304,-0.213,-0.364c-0.143,-0.06,-0.361,-0.091,-0.66,-0.091l-0.613,0c-0.077,0,-0.162,0.009,-0.252,0.027c-0.09,0.018,-0.172,0.052,-0.248,0.099c-0.075,0.046,-0.139,0.108,-0.188,0.184S754.975,424.315,754.975,424.43zM755.454,420.475c0,0.263,0.049,0.468,0.147,0.612c0.098,0.146,0.248,0.217,0.447,0.217c0.209,0,0.358,-0.07,0.451,-0.217c0.094,-0.145,0.14,-0.35,0.14,-0.612c0,-0.261,-0.046,-0.468,-0.137,-0.622c-0.092,-0.152,-0.243,-0.229,-0.454,-0.229C755.651,419.623,755.454,419.906,755.454,420.475z"/>
   <path fill="#8C8C8C"  stroke-width="0" d="M759.202,423.122c0,-0.136,0.02,-0.251,0.059,-0.346c0.04,-0.095,0.094,-0.172,0.163,-0.229c0.069,-0.058,0.149,-0.101,0.244,-0.126c0.092,-0.026,0.191,-0.039,0.299,-0.039c0.102,0,0.198,0.013,0.289,0.039c0.092,0.025,0.172,0.068,0.242,0.126c0.068,0.057,0.123,0.134,0.163,0.229c0.041,0.095,0.062,0.21,0.062,0.346c0,0.13,-0.021,0.242,-0.062,0.335c-0.04,0.093,-0.095,0.17,-0.163,0.229c-0.07,0.062,-0.15,0.104,-0.242,0.133c-0.091,0.027,-0.188,0.042,-0.289,0.042c-0.106,0,-0.207,-0.015,-0.299,-0.042c-0.095,-0.027,-0.175,-0.071,-0.244,-0.133c-0.069,-0.061,-0.123,-0.138,-0.163,-0.229C759.22,423.364,759.202,423.252,759.202,423.122z"/>
   <path fill="#8C8C8C"  stroke-width="0" d="M766.161,421.304c0,0.406,-0.052,0.767,-0.153,1.079c-0.104,0.313,-0.251,0.576,-0.443,0.79c-0.192,0.215,-0.428,0.378,-0.704,0.489c-0.277,0.111,-0.587,0.167,-0.933,0.167c-0.321,0,-0.617,-0.056,-0.886,-0.167c-0.271,-0.112,-0.503,-0.274,-0.698,-0.489c-0.195,-0.214,-0.35,-0.479,-0.458,-0.79c-0.11,-0.313,-0.165,-0.673,-0.165,-1.079c0,-0.402,0.051,-0.76,0.154,-1.072c0.103,-0.314,0.25,-0.576,0.442,-0.789C762.509,419.229,762.743,419.068,763.018,418.959s0.587,-0.164,0.937,-0.164c0.319,0,0.615,0.055,0.886,0.164c0.27,0.111,0.502,0.271,0.695,0.484c0.197,0.213,0.351,0.477,0.459,0.789C766.105,420.544,766.161,420.902,766.161,421.304zM763.075,421.304c0,0.484,0.068,0.851,0.205,1.093c0.137,0.246,0.357,0.368,0.664,0.368c0.306,0,0.524,-0.123,0.66,-0.37c0.137,-0.245,0.205,-0.608,0.205,-1.091s-0.068,-0.846,-0.205,-1.084c-0.136,-0.238,-0.358,-0.357,-0.668,-0.357c-0.305,0,-0.523,0.119,-0.659,0.357C763.142,420.459,763.075,420.822,763.075,421.304z"/>
   <path fill="#8C8C8C"  stroke-width="0" d="M769.881,418.793c0.035,0,0.073,0.002,0.115,0.002c0.042,0.002,0.083,0.006,0.12,0.01c0.04,0.005,0.076,0.009,0.109,0.014c0.033,0.004,0.059,0.01,0.076,0.016l0,1.244c-0.023,-0.008,-0.055,-0.012,-0.095,-0.018c-0.041,-0.007,-0.083,-0.012,-0.13,-0.018c-0.045,-0.004,-0.089,-0.006,-0.132,-0.008c-0.045,-0.002,-0.08,-0.002,-0.108,-0.002c-0.171,0,-0.328,0.021,-0.473,0.064c-0.144,0.043,-0.267,0.113,-0.37,0.211c-0.102,0.098,-0.182,0.225,-0.237,0.383c-0.058,0.157,-0.084,0.352,-0.084,0.581l0,2.474l-1.326,0L767.346,418.884l1.004,0l0.195,0.73l0.065,0c0.068,-0.125,0.146,-0.238,0.226,-0.34c0.081,-0.103,0.172,-0.189,0.271,-0.259c0.101,-0.071,0.213,-0.126,0.339,-0.165C769.575,418.813,769.719,418.793,769.881,418.793z"/>
   <path fill="#8C8C8C"  stroke-width="0" d="M775.189,418.893l0,0.722l-0.708,0.221c0.058,0.1,0.099,0.201,0.121,0.308s0.034,0.22,0.034,0.343c0,0.246,-0.039,0.471,-0.116,0.676c-0.079,0.203,-0.194,0.379,-0.349,0.522c-0.153,0.146,-0.348,0.258,-0.578,0.337c-0.232,0.08,-0.501,0.119,-0.809,0.119c-0.067,0,-0.141,-0.003,-0.219,-0.012c-0.078,-0.007,-0.135,-0.015,-0.173,-0.021c-0.058,0.049,-0.104,0.101,-0.137,0.152c-0.034,0.054,-0.05,0.117,-0.05,0.193c0,0.061,0.019,0.108,0.057,0.146c0.037,0.037,0.086,0.065,0.146,0.087c0.062,0.021,0.133,0.036,0.215,0.044c0.08,0.008,0.164,0.012,0.251,0.012l0.756,0c0.234,0,0.445,0.025,0.63,0.081c0.186,0.055,0.343,0.135,0.472,0.246c0.129,0.109,0.229,0.249,0.298,0.419c0.07,0.169,0.104,0.372,0.104,0.605c0,0.275,-0.054,0.523,-0.165,0.745c-0.109,0.224,-0.275,0.41,-0.493,0.565c-0.219,0.154,-0.489,0.273,-0.815,0.355c-0.323,0.082,-0.698,0.123,-1.125,0.123c-0.329,0,-0.617,-0.031,-0.864,-0.094c-0.246,-0.063,-0.451,-0.15,-0.617,-0.27c-0.164,-0.116,-0.287,-0.258,-0.371,-0.424c-0.083,-0.164,-0.124,-0.353,-0.124,-0.561c0,-0.177,0.03,-0.33,0.091,-0.46c0.063,-0.131,0.144,-0.243,0.244,-0.336c0.103,-0.093,0.217,-0.168,0.346,-0.227c0.129,-0.058,0.263,-0.103,0.398,-0.134c-0.062,-0.026,-0.121,-0.063,-0.182,-0.109c-0.06,-0.047,-0.113,-0.1,-0.16,-0.159c-0.047,-0.063,-0.087,-0.129,-0.117,-0.203c-0.03,-0.073,-0.045,-0.151,-0.045,-0.231c0,-0.093,0.014,-0.178,0.04,-0.252c0.027,-0.076,0.067,-0.146,0.12,-0.212c0.051,-0.064,0.117,-0.126,0.194,-0.184c0.078,-0.06,0.166,-0.117,0.266,-0.18c-0.255,-0.109,-0.456,-0.287,-0.606,-0.529c-0.148,-0.244,-0.223,-0.531,-0.223,-0.861c0,-0.26,0.039,-0.493,0.121,-0.698c0.081,-0.207,0.199,-0.382,0.354,-0.524c0.156,-0.143,0.351,-0.252,0.583,-0.328c0.231,-0.074,0.499,-0.111,0.8,-0.111c0.059,0,0.123,0.003,0.195,0.011s0.146,0.017,0.215,0.026c0.072,0.009,0.138,0.021,0.198,0.031c0.062,0.012,0.108,0.021,0.145,0.03L775.189,418.892L775.189,418.893zM771.713,424.43c0,0.073,0.017,0.145,0.046,0.211c0.031,0.068,0.081,0.129,0.149,0.182c0.07,0.052,0.161,0.094,0.273,0.124c0.114,0.03,0.252,0.046,0.418,0.046c0.451,0,0.792,-0.063,1.021,-0.191c0.229,-0.127,0.343,-0.298,0.343,-0.514c0,-0.183,-0.071,-0.304,-0.214,-0.364s-0.361,-0.091,-0.66,-0.091l-0.612,0c-0.079,0,-0.163,0.009,-0.252,0.027c-0.09,0.019,-0.173,0.052,-0.248,0.099c-0.076,0.046,-0.139,0.108,-0.188,0.184C771.739,424.217,771.713,424.315,771.713,424.43zM772.19,420.475c0,0.263,0.049,0.468,0.148,0.612c0.099,0.146,0.248,0.217,0.447,0.217c0.209,0,0.358,-0.07,0.451,-0.217c0.094,-0.145,0.141,-0.35,0.141,-0.612c0,-0.261,-0.046,-0.468,-0.138,-0.622c-0.092,-0.152,-0.243,-0.229,-0.454,-0.229C772.388,419.623,772.19,419.906,772.19,420.475z"/>
  </g>
  <g  stroke-width="0">
   <path fill="#8C8C8C"  stroke-width="0" d="M720.783,416.013l-8.146,0c-0.532,0,-0.965,0.432,-0.965,0.964l0,8.146c0,0.531,0.433,0.964,0.965,0.964l5.55,0l3.557,-3.558L721.744,416.977C721.747,416.444,721.315,416.013,720.783,416.013zM719.106,419.742l-1.075,0l0,0.401l1.075,0l0,1.601l-2.196,0l0,2.058l-2.572,0l0,-4.67l0.988,-0.99l3.779,0l0,1.603l0.001,0L719.106,419.742z"/>
  </g>
 </g>
 <g transform="translate(474.342,0)">
  <g transform="matrix(1,0,0,1,0,0)">
   <g  id="schematic" stroke-width="0">
    <rect width="167.133" x="22.432" y="28.946" fill="none"  height="360.938" stroke="#000000" stroke-linejoin="round" stroke-linecap="round" stroke-width="2.415"/>
    <line fill="none"  stroke="#000000" stroke-linejoin="round" stroke-linecap="round" y1="71.386" stroke-width="2.2495" x1="1.277" y2="71.386" x2="22.513"/>
    <line fill="none"  stroke="#000000" stroke-linejoin="round" stroke-linecap="round" y1="134.045" stroke-width="2.415" x1="1.245" y2="134.045" x2="22.432"/>
    <line fill="none"  stroke="#000000" stroke-linejoin="round" stroke-linecap="round" y1="155.28" stroke-width="2.415" x1="1.245" y2="155.28" x2="22.432"/>
    <line fill="none"  stroke="#000000" stroke-linejoin="round" stroke-linecap="round" y1="176.151" stroke-width="2.415" x1="1.245" y2="176.151" x2="22.432"/>
    <line fill="none"  stroke="#000000" stroke-linejoin="round" stroke-linecap="round" y1="197.752" stroke-width="2.415" x1="1.245" y2="197.752" x2="22.432"/>
    <line fill="none"  stroke="#000000" stroke-linejoin="round" stroke-linecap="round" y1="219.351" stroke-width="2.415" x1="1.245" y2="219.351" x2="22.432"/>
    <line fill="none"  stroke="#000000" stroke-linejoin="round" stroke-linecap="round" y1="240.95" stroke-width="2.415" x1="1.245" y2="240.95" x2="22.432"/>
    <line fill="none"  stroke="#000000" stroke-linejoin="round" stroke-linecap="round" y1="113.982" stroke-width="2.415" x1="210.807" y2="113.982" x2="189.564"/>
    <line fill="none"  stroke="#000000" stroke-linejoin="round" stroke-linecap="round" y1="135.219" stroke-width="2.415" x1="210.807" y2="135.219" x2="189.564"/>
    <line fill="none"  stroke="#000000" stroke-linejoin="round" stroke-linecap="round" y1="156.455" stroke-width="2.415" x1="210.807" y2="156.455" x2="189.564"/>
    <line fill="none"  stroke="#000000" stroke-linejoin="round" stroke-linecap="round" y1="177.691" stroke-width="2.415" x1="210.807" y2="177.691" x2="189.564"/>
    <line fill="none"  stroke="#000000" stroke-linejoin="round" stroke-linecap="round" y1="198.928" stroke-width="2.415" x1="210.807" y2="198.928" x2="189.564"/>
    <line fill="none"  stroke="#000000" stroke-linejoin="round" stroke-linecap="round" y1="220.165" stroke-width="2.415" x1="210.807" y2="220.165" x2="189.564"/>
    <line fill="none"  stroke="#000000" stroke-linejoin="round" stroke-linecap="round" y1="241.4" stroke-width="2.415" x1="210.807" y2="241.4" x2="189.564"/>
    <line fill="none"  stroke="#000000" stroke-linejoin="round" stroke-linecap="round" y1="262.636" stroke-width="2.415" x1="210.807" y2="262.636" x2="189.564"/>
    <line fill="none"  stroke="#000000" stroke-linejoin="round" stroke-linecap="round" y1="283.874" stroke-width="2.415" x1="210.807" y2="283.874" x2="189.564"/>
    <line fill="none"  stroke="#000000" stroke-linejoin="round" stroke-linecap="round" y1="305.11" stroke-width="2.415" x1="210.807" y2="305.11" x2="189.564"/>
    <line fill="none"  stroke="#000000" stroke-linejoin="round" stroke-linecap="round" y1="326.346" stroke-width="2.415" x1="210.807" y2="326.346" x2="189.564"/>
    <line fill="none"  stroke="#000000" stroke-linejoin="round" stroke-linecap="round" y1="347.581" stroke-width="2.415" x1="210.807" y2="347.581" x2="189.564"/>
    <text x="0" y="0" font-family="DroidSans"  stroke-width="0" transform="matrix(1, 0, 0, 1, 30.4038, 74.1034)" font-size="9.98889">RST</text>
    <text x="0" y="0" font-family="DroidSans"  stroke-width="0" transform="matrix(1, 0, 0, 1, 30.4038, 95.3632)" font-size="9.98889">AREF</text>
    <text x="0" y="0" font-family="DroidSans"  stroke-width="0" transform="matrix(1, 0, 0, 1, 32.2759, 136.536)" font-size="9.98889">F0 - A0</text>
    <text x="0" y="0" font-family="DroidSans"  stroke-width="0" transform="matrix(1, 0, 0, 1, 32.2759, 157.972)" font-size="9.98889">F1 - A1</text>
    <text x="0" y="0" font-family="DroidSans"  stroke-width="0" transform="matrix(1, 0, 0, 1, 32.2759, 179.411)" font-size="9.98889">F4 - A2</text>
    <text x="0" y="0" font-family="DroidSans"  stroke-width="0" transform="matrix(1, 0, 0, 1, 32.2759, 200.848)" font-size="9.98889">F5 - A3</text>
    <text x="0" y="0" font-family="DroidSans"  stroke-width="0" transform="matrix(1, 0, 0, 1, 32.2759, 222.286)" font-size="9.98889">F6 - A4</text>
    <text x="0" y="0" font-family="DroidSans"  stroke-width="0" transform="matrix(1, 0, 0, 1, 32.2759, 243.725)" font-size="9.98889">F7 - A5</text>
    <line fill="none"  stroke="#000000" stroke-linejoin="round" stroke-linecap="round" y1="262.55" stroke-width="2.415" x1="1.245" y2="262.55" x2="22.432"/>
    <line fill="none"  stroke="#000000" stroke-linejoin="round" stroke-linecap="round" y1="284.151" stroke-width="2.415" x1="1.245" y2="284.151" x2="22.432"/>
    <line fill="none"  stroke="#000000" stroke-linejoin="round" stroke-linecap="round" y1="305.751" stroke-width="2.415" x1="1.245" y2="305.751" x2="22.432"/>
    <line fill="none"  stroke="#000000" stroke-linejoin="round" stroke-linecap="round" y1="327.351" stroke-width="2.415" x1="1.245" y2="327.351" x2="22.432"/>
    <line fill="none"  stroke="#000000" stroke-linejoin="round" stroke-linecap="round" y1="348.95" stroke-width="2.415" x1="1.245" y2="348.95" x2="22.432"/>
    <line fill="none"  stroke="#000000" stroke-linejoin="round" stroke-linecap="round" y1="370.551" stroke-width="2.415" x1="1.245" y2="370.551" x2="22.432"/>
    <text x="0" y="0" font-family="DroidSans"  stroke-width="0" transform="matrix(1, 0, 0, 1, 32.2759, 263.946)" font-size="9.98889">B6 - A6</text>
    <text x="0" y="0" font-family="DroidSans"  stroke-width="0" transform="matrix(1, 0, 0, 1, 32.2759, 285.382)" font-size="9.98889">B5 - A7</text>
    <text x="0" y="0" font-family="DroidSans"  stroke-width="0" transform="matrix(1, 0, 0, 1, 32.2759, 306.821)" font-size="9.98889">B4 - A8</text>
    <text x="0" y="0" font-family="DroidSans"  stroke-width="0" transform="matrix(1, 0, 0, 1, 32.2759, 328.259)" font-size="9.98889">D7 - A9</text>
    <text x="0" y="0" font-family="DroidSans"  stroke-width="0" transform="matrix(1, 0, 0, 1, 32.2759, 349.696)" font-size="9.98889">D6 - A10</text>
    <text x="0" y="0" font-family="DroidSans"  stroke-width="0" transform="matrix(1, 0, 0, 1, 32.2759, 371.135)" font-size="9.98889">D4 - A11</text>
    <line fill="none"  stroke="#000000" stroke-linejoin="round" stroke-linecap="round" y1="28.946" stroke-width="1.9517" x1="106.064" y2="7.71099" x2="106.064"/>
    <line fill="none"  stroke="#000000" stroke-linejoin="round" stroke-linecap="round" y1="92.4109" stroke-width="1.9517" x1="22.404" y2="92.4109" x2="1.169"/>
    <text x="0" y="0" font-family="DroidSans"  stroke-width="0" transform="matrix(1, 0, 0, 1, 98.723, 46.1074)" font-size="9.98889">Vcc</text>
    <text x="0" y="0" font-family="DroidSans"  stroke-width="0" transform="matrix(0, 1, -1, 0, 75.8866, 222.454)" font-size="9.98889">Analog Input</text>
    <text x="0" y="0" font-family="DroidSans"  stroke-width="0" transform="matrix(1, 0, 0, 1, 165.787, 116.42)" font-size="9.98889">D5</text>
    <text x="0" y="0" font-family="DroidSans"  stroke-width="0" transform="matrix(1, 0, 0, 1, 166.597, 138.029)" font-size="9.98889">C7</text>
    <text x="0" y="0" font-family="DroidSans"  stroke-width="0" transform="matrix(1, 0, 0, 1, 166.597, 159.211)" font-size="9.98889">C6</text>
    <text x="0" y="0" font-family="DroidSans"  stroke-width="0" transform="matrix(1, 0, 0, 1, 165.787, 179.967)" font-size="9.98889">D3</text>
    <text x="0" y="0" font-family="DroidSans"  stroke-width="0" transform="matrix(1, 0, 0, 1, 165.787, 201.578)" font-size="9.98889">D2</text>
    <text x="0" y="0" font-family="DroidSans"  stroke-width="0" transform="matrix(1, 0, 0, 1, 165.787, 222.336)" font-size="9.98889">D1</text>
    <text x="0" y="0" font-family="DroidSans"  stroke-width="0" transform="matrix(1, 0, 0, 1, 165.787, 243.941)" font-size="9.98889">D0</text>
    <text x="0" y="0" font-family="DroidSans"  stroke-width="0" transform="matrix(1, 0, 0, 1, 166.416, 265.125)" font-size="9.98889">B7</text>
    <text x="0" y="0" font-family="DroidSans"  stroke-width="0" transform="matrix(1, 0, 0, 1, 166.416, 286.732)" font-size="9.98889">B3</text>
    <text x="0" y="0" font-family="DroidSans"  stroke-width="0" transform="matrix(1, 0, 0, 1, 192.854, 280.674)" font-size="6.99219">PWM</text>
    <text x="0" y="0" font-family="DroidSans"  stroke-width="0" transform="matrix(1, 0, 0, 1, 192.854, 259.336)" font-size="6.99219">PWM</text>
    <text x="0" y="0" font-family="DroidSans"  stroke-width="0" transform="matrix(1, 0, 0, 1, 193.847, 175.399)" font-size="6.99219">TX</text>
    <text x="0" y="0" font-family="DroidSans"  stroke-width="0" transform="matrix(1, 0, 0, 1, 193.847, 195.797)" font-size="6.99219">RX</text>
    <text x="0" y="0" font-family="DroidSans"  stroke-width="0" transform="matrix(1, 0, 0, 1, 192.854, 153.537)" font-size="6.99219">PWM</text>
    <text x="0" y="0" font-family="DroidSans"  stroke-width="0" transform="matrix(1, 0, 0, 1, 192.854, 132.199)" font-size="6.99219">PWM</text>
    <text x="0" y="0" font-family="DroidSans"  stroke-width="0" transform="matrix(1, 0, 0, 1, 192.854, 238.162)" font-size="6.99219">PWM</text>
    <text x="0" y="0" font-family="DroidSans"  stroke-width="0" transform="matrix(1, 0, 0, 1, 2.271, 259.4)" font-size="6.99219">PWM</text>
    <text x="0" y="0" font-family="DroidSans"  stroke-width="0" transform="matrix(1, 0, 0, 1, 2.271, 280.987)" font-size="6.99219">PWM</text>
    <text x="0" y="0" font-family="DroidSans"  stroke-width="0" transform="matrix(1, 0, 0, 1, 2.271, 323.935)" font-size="6.99219">PWM</text>
    <text x="0" y="0" font-family="DroidSans"  stroke-width="0" transform="matrix(1, 0, 0, 1, 166.416, 307.488)" font-size="9.98889">B2</text>
    <text x="0" y="0" font-family="DroidSans"  stroke-width="0" transform="matrix(1, 0, 0, 1, 166.416, 329.097)" font-size="9.98889">B1</text>
    <text x="0" y="0" font-family="DroidSans"  stroke-width="0" transform="matrix(1, 0, 0, 1, 166.416, 350.279)" font-size="9.98889">B0</text>
    <text x="0" y="0" font-family="DroidSans"  stroke-width="0" transform="matrix(0, -1, 1, 0, 152.748, 265.098)" font-size="9.98889">Digital Input/Output</text>
    <g  stroke-width="0">
     <text x="0" y="0" font-family="DroidSans"  stroke-width="0" transform="matrix(1, 0, 0, 1, 78.5712, 101.836)" font-size="17.98">Teensy</text>
     <text x="0" y="0" font-family="DroidSans"  stroke-width="0" transform="matrix(1, 0, 0, 1, 93.7504, 123.411)" font-size="17.98">2.0</text>
    </g>
    <line fill="none"  stroke="#000000" stroke-linejoin="round" stroke-linecap="round" y1="411.12" stroke-width="1.9517" x1="106.064" y2="389.883" x2="106.064"/>
    <text x="0" y="0" font-family="DroidSans"  stroke-width="0" transform="matrix(1, 0, 0, 1, 95.559, 379.695)" font-size="9.98889">GND</text>
    <polygon points="203.49,170.503,208.197,173.219,203.49,175.937"  stroke-width="0"/>
    <polygon points="208.197,196.548,203.49,193.825,208.197,191.11"  stroke-width="0"/>
    <line fill="none"  stroke="#000000" stroke-linejoin="round" stroke-linecap="round" y1="92.6309" stroke-width="2.415" x1="210.881" y2="92.6309" x2="189.639"/>
    <text x="0" y="0" font-family="DroidSans"  stroke-width="0" transform="matrix(1, 0, 0, 1, 167.422, 95.4862)" font-size="9.98889">E6</text>
    <rect width="2.099" x="105.015" y="7.71099" fill="none"  height="10.487" id="connector30pin" stroke-width="0"/>
    <rect width="2.099" x="105.015" y="7.71099" fill="none"  height="1.995" stroke-width="0"/>
    <rect width="10.487" x="1.245" y="132.966" fill="none"  height="2.1" id="connector29pin" stroke-width="0"/>
    <rect width="1.995" x="1.245" y="132.966" fill="none"  height="2.1" stroke-width="0"/>
    <rect width="10.487" x="1.245" y="154.205" fill="none"  height="2.101" id="connector28pin" stroke-width="0"/>
    <rect width="1.995" x="1.245" y="154.205" fill="none"  height="2.101" stroke-width="0"/>
    <rect width="10.487" x="1.245" y="175.101" fill="none"  height="2.103" id="connector27pin" stroke-width="0"/>
    <rect width="1.995" x="1.245" y="175.101" fill="none"  height="2.103" stroke-width="0"/>
    <rect width="10.486" x="1.169" y="91.3619" fill="none"  height="2.1" id="connector26pin" stroke-width="0"/>
    <rect width="1.994" x="1.169" y="91.3619" fill="none"  height="2.1" stroke-width="0"/>
    <rect width="10.487" x="1.245" y="196.673" fill="none"  height="2.101" id="connector25pin" stroke-width="0"/>
    <rect width="1.995" x="1.245" y="196.673" fill="none"  height="2.101" stroke-width="0"/>
    <rect width="10.487" x="1.245" y="218.3" fill="none"  height="2.101" id="connector24pin" stroke-width="0"/>
    <rect width="1.995" x="1.245" y="218.3" fill="none"  height="2.101" stroke-width="0"/>
    <rect width="10.487" x="1.245" y="239.902" fill="none"  height="2.1" id="connector23pin" stroke-width="0"/>
    <rect width="1.995" x="1.245" y="239.902" fill="none"  height="2.1" stroke-width="0"/>
    <rect width="10.487" x="1.245" y="261.505" fill="none"  height="2.101" id="connector22pin" stroke-width="0"/>
    <rect width="1.995" x="1.245" y="261.505" fill="none"  height="2.101" stroke-width="0"/>
    <rect width="10.487" x="1.245" y="283.102" fill="none"  height="2.102" id="connector21pin" stroke-width="0"/>
    <rect width="1.995" x="1.245" y="283.102" fill="none"  height="2.102" stroke-width="0"/>
    <rect width="10.487" x="1.245" y="304.7" fill="none"  height="2.102" id="connector20pin" stroke-width="0"/>
    <rect width="1.995" x="1.245" y="304.7" fill="none"  height="2.102" stroke-width="0"/>
    <rect width="10.487" x="1.245" y="326.301" fill="none"  height="2.101" id="connector19pin" stroke-width="0"/>
    <rect width="1.995" x="1.245" y="326.301" fill="none"  height="2.101" stroke-width="0"/>
    <rect width="10.487" x="1.245" y="347.901" fill="none"  height="2.101" id="connector18pin" stroke-width="0"/>
    <rect width="1.995" x="1.245" y="347.901" fill="none"  height="2.101" stroke-width="0"/>
    <rect width="10.487" x="1.245" y="369.502" fill="none"  height="2.1" id="connector17pin" stroke-width="0"/>
    <rect width="1.995" x="1.245" y="369.502" fill="none"  height="2.1" stroke-width="0"/>
    <rect width="10.488" x="1.275" y="70.505" fill="none"  height="2.099" id="connector16pin" stroke-width="0"/>
    <rect width="1.995" x="1.275" y="70.505" fill="none"  height="2.099" stroke-width="0"/>
    <rect width="2.099" x="105.015" y="400.633" fill="none"  height="10.485" id="connector15pin" stroke-width="0"/>
    <rect width="2.099" x="105.015" y="409.128" fill="none"  height="1.992" stroke-width="0"/>
    <rect width="2.099" x="105.015" y="7.71099" fill="none"  height="10.487" id="connector14pin" stroke-width="0"/>
    <rect width="2.099" x="105.015" y="7.71099" fill="none"  height="1.995" stroke-width="0"/>
    <rect width="10.487" x="200.318" y="112.764" fill="none"  height="2.099" id="connector13pin" stroke-width="0"/>
    <rect width="1.992" x="208.814" y="112.764" fill="none"  height="2.099" stroke-width="0"/>
    <rect width="10.487" x="200.318" y="134.003" fill="none"  height="2.098" id="connector12pin" stroke-width="0"/>
    <rect width="1.992" x="208.814" y="134.003" fill="none"  height="2.098" stroke-width="0"/>
    <rect width="10.487" x="200.318" y="155.237" fill="none"  height="2.101" id="connector11pin" stroke-width="0"/>
    <rect width="1.992" x="208.814" y="155.237" fill="none"  height="2.101" stroke-width="0"/>
    <rect width="10.487" x="200.318" y="176.474" fill="none"  height="2.099" id="connector10pin" stroke-width="0"/>
    <rect width="1.992" x="208.814" y="176.474" fill="none"  height="2.099" stroke-width="0"/>
    <rect width="10.487" x="200.318" y="197.711" fill="none"  height="2.099" id="connector9pin" stroke-width="0"/>
    <rect width="1.992" x="208.814" y="197.711" fill="none"  height="2.099" stroke-width="0"/>
    <rect width="10.487" x="200.318" y="218.946" fill="none"  height="2.103" id="connector8pin" stroke-width="0"/>
    <rect width="1.992" x="208.814" y="218.946" fill="none"  height="2.103" stroke-width="0"/>
    <rect width="10.487" x="200.318" y="240.184" fill="none"  height="2.104" id="connector7pin" stroke-width="0"/>
    <rect width="1.992" x="208.814" y="240.184" fill="none"  height="2.104" stroke-width="0"/>
    <rect width="10.487" x="200.318" y="261.421" fill="none"  height="2.099" id="connector6pin" stroke-width="0"/>
    <rect width="1.992" x="208.814" y="261.421" fill="none"  height="2.099" stroke-width="0"/>
    <rect width="10.486" x="200.393" y="91.4119" fill="none"  height="2.1" id="connector5pin" stroke-width="0"/>
    <rect width="1.99" x="208.889" y="91.4119" fill="none"  height="2.1" stroke-width="0"/>
    <rect width="10.487" x="200.318" y="282.655" fill="none"  height="2.103" id="connector4pin" stroke-width="0"/>
    <rect width="1.992" x="208.814" y="282.655" fill="none"  height="2.103" stroke-width="0"/>
    <rect width="10.487" x="200.318" y="303.893" fill="none"  height="2.101" id="connector3pin" stroke-width="0"/>
    <rect width="1.992" x="208.814" y="303.893" fill="none"  height="2.101" stroke-width="0"/>
    <rect width="10.487" x="200.318" y="325.126" fill="none"  height="2.103" id="connector2pin" stroke-width="0"/>
    <rect width="1.992" x="208.814" y="325.126" fill="none"  height="2.103" stroke-width="0"/>
    <rect width="10.487" x="200.318" y="346.362" fill="none"  height="2.102" id="connector1pin" stroke-width="0"/>
    <rect width="1.992" x="208.814" y="346.362" fill="none"  height="2.102" stroke-width="0"/>
    <rect width="2.099" x="105.015" y="400.633" fill="none"  height="10.485" id="connector0pin" stroke-width="0"/>
    <rect width="2.099" x="105.015" y="409.128" fill="none"  height="1.992" stroke-width="0"/>
   </g>
  </g>
 </g>
 <g transform="translate(275.108,234.822)">
  <g transform="matrix(-1,0,0,1,0,0)">
   <g  style="display:inline" id="schematic" stroke-width="0" transform="matrix(1, 0, 0, 1, 14.4, 0)">
    <g  stroke-width="0" transform="matrix(1, 0, 0, 1, -14.4, 0)">
     <rect width="1.5144" x="34.1064" y="0.9896"  height="7.8264" id="connector2pin" stroke-width="0"/>
     <rect width="0.6936" x="34.5128" y="0.7008"  height="0.5472" id="connector2terminal" stroke-width="0"/>
     <rect width="1.5144" x="33.6" y="42.0552"  height="7.8248" id="connector1pin" stroke-width="0"/>
     <rect width="0.6936" x="34.4" y="49.7048"  height="0.5488" id="connector1terminal" stroke-width="0"/>
     <rect width="7.8248" x="1.6456" y="24.5976"  height="1.5144" id="connector0pin" stroke-width="0"/>
     <rect width="0.5488" x="1.2728" y="25.0144"  height="0.6936" id="connector0terminal" stroke-width="0"/>
    </g>
    <g  id="g10" stroke-width="0">
     <path  id="path12" stroke-width="0" d="M19.2,49.6321L19.2,35.3081C19.2,34.8161,19.5984,34.4185,20.0904,34.4185L20.0904,34.4185C20.5824,34.4185,20.9808,34.8161,20.9808,35.3081L20.9808,35.3081L20.9808,49.6321C20.9808,50.1241,20.5824,50.5217,20.0904,50.5217L20.0904,50.5217C19.5984,50.5217,19.2,50.1241,19.2,49.6321L19.2,49.6321z"/>
    </g>
    <g  id="g14" stroke-width="0">
     <path  id="path16" stroke-width="0" d="M19.5704,15.8392L19.5704,1.3936C19.5704,0.9008,19.9688,0.5024,20.4624,0.5024L20.4624,0.5024C20.9544,0.5024,21.3528,0.9008,21.3528,1.3936L21.3528,1.3936L21.3528,15.8392C21.3528,16.3312,20.9544,16.7296,20.4624,16.7296L20.4624,16.7296C19.9688,16.7296,19.5704,16.3312,19.5704,15.8392L19.5704,15.8392z"/>
    </g>
    <g  id="g18" stroke-width="0">
     <polygon points="7.7752,36.5264,7.7752,14.3632,9.5576,14.3632,9.5576,36.5264,7.7752,36.5264"  id="polygon20" stroke-width="0" transform="matrix(1, 0, 0, 0.777462, 1.25927, 5.29514)"/>
    </g>
    <circle fill="none" cx="13.2456"  cy="25.4456" stroke="#000000" r="11.9624" id="circle22" stroke-width="1.47992"/>
    <g  id="g24" stroke-width="0" transform="matrix(1.04656, 0, 0, 1, 0.61803, 0)">
     <path  id="path26" stroke-width="0" d="M-12.276,26.4C-12.8272,26.4,-13.2752,25.9536,-13.2752,25.4024L-13.2752,25.4024C-13.2752,24.8496,-12.8272,24.4032,-12.276,24.4032L-12.276,24.4032L8.2664,24.4032C8.8176,24.4032,9.2656,24.8496,9.2656,25.4024L9.2656,25.4024C9.2656,25.9536,8.8176,26.4,8.2664,26.4L8.2664,26.4L-12.276,26.4L-12.276,26.4z"/>
    </g>
    <g  id="g28" stroke-width="0" transform="matrix(0, 0.709986, -1.02973, 0, 46.9997, 8.63061)">
     <g  id="g30" stroke-width="0">
      <path  id="path32" stroke-width="0" d=""/>
     </g>
     <g  id="g34" stroke-width="0">
      <polygon points="8.2712,26.1424,9.3256,24.9376,15.564,30.3984,14.5112,31.6016,8.2712,26.1424"  id="polygon36" stroke-width="0" transform="matrix(1.42561, 0, 0, 1.24468, -2.63349, -6.30559)"/>
     </g>
     <g  id="g38" stroke-width="0">
      <polygon points="16.0192,28.5648,20.212,35.528,12.7536,32.2968,16.0192,28.5648"  id="polygon40" stroke-width="0" transform="matrix(1.72642, 0.209891, -0.318197, 1.24424, -1.33296, -12.5097)"/>
     </g>
    </g>
    <g  id="g42" stroke-width="0" transform="matrix(0, 0.713272, -1.04896, 0, 36.5419, 21.0115)">
     <polygon points="8.1344,24.7368,19.9432,15.2672,20.944,16.5152,9.1352,25.984,8.1344,24.7368"  id="polygon44" stroke-width="0"/>
    </g>
   </g>
  </g>
 </g>
 <g transform="translate(168.809,192.302)">
  <g transform="matrix(-1,0,0,1,0,0)">
   <g  style="display:inline" id="schematic" stroke-width="0" transform="matrix(1, 0, 0, 1, 14.4, 0)">
    <g  stroke-width="0" transform="matrix(1, 0, 0, 1, -14.4, 0)">
     <rect width="1.5144" x="34.1064" y="0.9896"  height="7.8264" id="connector2pin" stroke-width="0"/>
     <rect width="0.6936" x="34.5128" y="0.7008"  height="0.5472" id="connector2terminal" stroke-width="0"/>
     <rect width="1.5144" x="33.6" y="42.0552"  height="7.8248" id="connector1pin" stroke-width="0"/>
     <rect width="0.6936" x="34.4" y="49.7048"  height="0.5488" id="connector1terminal" stroke-width="0"/>
     <rect width="7.8248" x="1.6456" y="24.5976"  height="1.5144" id="connector0pin" stroke-width="0"/>
     <rect width="0.5488" x="1.2728" y="25.0144"  height="0.6936" id="connector0terminal" stroke-width="0"/>
    </g>
    <g  id="g10" stroke-width="0">
     <path  id="path12" stroke-width="0" d="M19.2,49.6321L19.2,35.3081C19.2,34.8161,19.5984,34.4185,20.0904,34.4185L20.0904,34.4185C20.5824,34.4185,20.9808,34.8161,20.9808,35.3081L20.9808,35.3081L20.9808,49.6321C20.9808,50.1241,20.5824,50.5217,20.0904,50.5217L20.0904,50.5217C19.5984,50.5217,19.2,50.1241,19.2,49.6321L19.2,49.6321z"/>
    </g>
    <g  id="g14" stroke-width="0">
     <path  id="path16" stroke-width="0" d="M19.5704,15.8392L19.5704,1.3936C19.5704,0.9008,19.9688,0.5024,20.4624,0.5024L20.4624,0.5024C20.9544,0.5024,21.3528,0.9008,21.3528,1.3936L21.3528,1.3936L21.3528,15.8392C21.3528,16.3312,20.9544,16.7296,20.4624,16.7296L20.4624,16.7296C19.9688,16.7296,19.5704,16.3312,19.5704,15.8392L19.5704,15.8392z"/>
    </g>
    <g  id="g18" stroke-width="0">
     <polygon points="7.7752,36.5264,7.7752,14.3632,9.5576,14.3632,9.5576,36.5264,7.7752,36.5264"  id="polygon20" stroke-width="0" transform="matrix(1, 0, 0, 0.777462, 1.25927, 5.29514)"/>
    </g>
    <circle fill="none" cx="13.2456"  cy="25.4456" stroke="#000000" r="11.9624" id="circle22" stroke-width="1.47992"/>
    <g  id="g24" stroke-width="0" transform="matrix(1.04656, 0, 0, 1, 0.61803, 0)">
     <path  id="path26" stroke-width="0" d="M-12.276,26.4C-12.8272,26.4,-13.2752,25.9536,-13.2752,25.4024L-13.2752,25.4024C-13.2752,24.8496,-12.8272,24.4032,-12.276,24.4032L-12.276,24.4032L8.2664,24.4032C8.8176,24.4032,9.2656,24.8496,9.2656,25.4024L9.2656,25.4024C9.2656,25.9536,8.8176,26.4,8.2664,26.4L8.2664,26.4L-12.276,26.4L-12.276,26.4z"/>
    </g>
    <g  id="g28" stroke-width="0" transform="matrix(0, 0.709986, -1.02973, 0, 46.9997, 8.63061)">
     <g  id="g30" stroke-width="0">
      <path  id="path32" stroke-width="0" d=""/>
     </g>
     <g  id="g34" stroke-width="0">
      <polygon points="8.2712,26.1424,9.3256,24.9376,15.564,30.3984,14.5112,31.6016,8.2712,26.1424"  id="polygon36" stroke-width="0" transform="matrix(1.42561, 0, 0, 1.24468, -2.63349, -6.30559)"/>
     </g>
     <g  id="g38" stroke-width="0">
      <polygon points="16.0192,28.5648,20.212,35.528,12.7536,32.2968,16.0192,28.5648"  id="polygon40" stroke-width="0" transform="matrix(1.72642, 0.209891, -0.318197, 1.24424, -1.33296, -12.5097)"/>
     </g>
    </g>
    <g  id="g42" stroke-width="0" transform="matrix(0, 0.713272, -1.04896, 0, 36.5419, 21.0115)">
     <polygon points="8.1344,24.7368,19.9432,15.2672,20.944,16.5152,9.1352,25.984,8.1344,24.7368"  id="polygon44" stroke-width="0"/>
    </g>
   </g>
  </g>
 </g>
 <g transform="translate(0,169.406)">
  <g  id="schematic" stroke-width="0">
   <rect width="2" x="26.65" y="78.6499" fill="none"  height="9.99998" id="connector0pin" stroke-width="0"/>
   <rect width="2" x="26.65" y="1.15" fill="none"  height="9.99998" id="connector1pin" stroke-width="0"/>
   <rect width="2" x="26.65" y="86.6498" fill="none"  height="2" id="connector0terminal" stroke-width="0"/>
   <rect width="2" x="26.65" y="1.15" fill="none"  height="2" id="connector1terminal" stroke-width="0"/>
   <g  id="text" stroke-width="0">
    <g  stroke-width="0">
     <path  stroke-width="0" d="M19.31,62.9809l1.114,0l0,6.59699L19.31,69.5779L19.31,62.9809z"/>
    </g>
    <g  stroke-width="0">
     <path  stroke-width="0" d="M19.333,25.547l-2.34,0l0,-1.211l2.34,0l0,-2.195L20.4,22.141l0,2.195l2.326,0l0,1.211L20.4,25.547l0,2.207l-1.066,0L19.333,25.547L19.333,25.547z"/>
    </g>
   </g>
   <g  id="diagram" stroke-width="0">
    <line fill="none"  stroke="#000000" stroke-linejoin="round" stroke-linecap="round" y1="1.15" stroke-width="2.3" x1="27.65" y2="32.1499" x2="27.65"/>
    <line fill="none"  stroke="#000000" stroke-linejoin="round" stroke-linecap="round" y1="57.6499" stroke-width="2.3" x1="27.65" y2="88.6498" x2="27.65"/>
    <line fill="none"  stroke="#000000" stroke-linejoin="round" stroke-linecap="round" y1="32.1499" stroke-width="2.3" x1="53.15" y2="32.1499" x2="1.15"/>
    <line fill="none"  stroke="#000000" stroke-linejoin="round" stroke-linecap="round" y1="40.6499" stroke-width="2.3" x1="41.817" y2="40.6499" x2="12.483"/>
    <line fill="none"  stroke="#000000" stroke-linejoin="round" stroke-linecap="round" y1="49.1499" stroke-width="2.3" x1="53.15" y2="49.1499" x2="1.15"/>
    <line fill="none"  stroke="#000000" stroke-linejoin="round" stroke-linecap="round" y1="57.6499" stroke-width="2.3" x1="41.817" y2="57.6499" x2="12.483"/>
   </g>
  </g>
 </g>
 <g transform="translate(347.297,250.671)">
  <g transform="matrix(0,1,-1,0,0,0)">
   <g  id="schematic" stroke-width="0">
    <rect width="1.893" x="5.474" y="1.089"  height="9.783" id="connector0pin" stroke-width="0"/>
    <rect width="0.866" x="5.952" y="0.406"  height="0.686" id="connector0terminal" stroke-width="0"/>
    <rect width="1.894" x="5.477" y="54.369"  height="9.783" id="connector1pin" stroke-width="0"/>
    <rect width="0.866" x="5.956" y="64.082"  height="0.688" id="connector1terminal" stroke-width="0"/>
    <g  stroke-width="0">
     <polyline fill="#FFFFFF" points="6.405,1.132,6.405,20.392,9.905,22.255,2.655,26.291,9.905,30.324,2.655,34.359,9.905,38.392,2.655,42.427,6.405,44.599,6.405,63.861"  stroke="#000000" stroke-linecap="round" stroke-width="2.2284"/>
    </g>
   </g>
  </g>
 </g>
 <g transform="translate(109.799,408.025)">
  <g transform="matrix(0,-1,1,0,0,0)">
   <g  id="schematic" stroke-width="0">
    <rect width="9.99997" x="1.15" y="23.15" fill="none"  height="2" id="connector0pin" stroke-width="0"/>
    <rect width="9.99997" x="99.1497" y="23.15" fill="none"  height="2" id="connector1pin" stroke-width="0"/>
    <rect width="1.99999" x="1.15" y="23.15" fill="none"  height="2" id="connector0terminal" stroke-width="0"/>
    <rect width="1.99999" x="107.15" y="23.15" fill="none"  height="2" id="connector1terminal" stroke-width="0"/>
    <g  id="diagram" stroke-width="0">
     <circle fill="none" cx="55.1498"  cy="24.15" stroke="#000000" r="22.9999" stroke-width="2.29999"/>
     <line fill="none"  stroke="#000000" stroke-linejoin="round" stroke-linecap="round" y1="24.15" stroke-width="2.29999" x1="1.15" y2="24.15" x2="32.1499"/>
     <line fill="none"  stroke="#000000" stroke-linejoin="round" stroke-linecap="round" y1="24.15" stroke-width="2.29999" x1="78.1498" y2="24.15" x2="109.15"/>
    </g>
    <g  id="text" stroke-width="0">
     <g  stroke-width="0">
      <path  stroke-width="0" d="M62.0408,31.152l-1.272,-8.617c-0.239999,-1.632,-0.383999,-2.904,-0.504999,-3.96l-0.0469999,0c-0.191999,0.912,-0.432999,1.944,-0.839998,3.168l-3.04899,9.409l-2.71199,0l-2.90399,-8.76c-0.455999,-1.344,-0.791998,-2.592,-1.032,-3.816l-0.0479999,0c-0.0959997,1.393,-0.263999,2.664,-0.431999,4.2l-1.032,8.376l-2.66499,0l2.42399,-16.201l3.11999,0l3.12099,9.36c0.287999,0.913,0.623998,2.088,0.911997,3.313l0.0239999,0c0.287999,-1.201,0.527998,-2.113,0.911997,-3.216l3.16799,-9.457l3.14499,0L64.7998,31.152L62.0408,31.152z"/>
     </g>
    </g>
   </g>
  </g>
 </g>
 <g transform="translate(240.998,208.151)">
  <g transform="matrix(0,1,-1,0,0,0)">
   <g  id="schematic" stroke-width="0">
    <rect width="1.893" x="5.474" y="1.089"  height="9.783" id="connector0pin" stroke-width="0"/>
    <rect width="0.866" x="5.952" y="0.406"  height="0.686" id="connector0terminal" stroke-width="0"/>
    <rect width="1.894" x="5.477" y="54.369"  height="9.783" id="connector1pin" stroke-width="0"/>
    <rect width="0.866" x="5.956" y="64.082"  height="0.688" id="connector1terminal" stroke-width="0"/>
    <g  stroke-width="0">
     <polyline fill="#FFFFFF" points="6.405,1.132,6.405,20.392,9.905,22.255,2.655,26.291,9.905,30.324,2.655,34.359,9.905,38.392,2.655,42.427,6.405,44.599,6.405,63.861"  stroke="#000000" stroke-linecap="round" stroke-width="2.2284"/>
    </g>
   </g>
  </g>
 </g>
 <g transform="translate(761.126,279.028)">
  <g transform="matrix(-1,0,0,-1,0,0)">
   <g  id="schematic" stroke-width="0">
    <rect width="1.893" x="9.729" y="1.052"  height="9.783" id="connector0pin" stroke-width="0"/>
    <rect width="0.867" x="10.207" y="0.37"  height="0.684" id="connector0terminal" stroke-width="0"/>
    <rect width="1.895" x="9.73" y="51.77"  height="9.781" id="connector1pin" stroke-width="0"/>
    <rect width="0.867" x="10.21" y="61.483"  height="0.688" id="connector1terminal" stroke-width="0"/>
    <rect width="1.893" x="9.729" y="1.052"  height="9.783" id="connector2pin" stroke-width="0"/>
    <rect width="0.867" x="10.207" y="0.37"  height="0.684" id="connector2terminal" stroke-width="0"/>
    <rect width="1.895" x="9.73" y="51.77"  height="9.781" id="connector3pin" stroke-width="0"/>
    <rect width="0.867" x="10.21" y="61.483"  height="0.688" id="connector3terminal" stroke-width="0"/>
    <g  stroke-width="0">
     <line fill="none"  stroke="#000000" stroke-linecap="round" y1="43.358" stroke-width="2.2284" x1="10.66" y2="61.262" x2="10.66"/>
     <line fill="none"  stroke="#000000" stroke-linecap="round" y1="1.095" stroke-width="2.2284" x1="10.66" y2="19.151" x2="10.66"/>
     <line fill="none"  stroke="#000000" stroke-linecap="round" y1="43.358" stroke-width="2.2" x1="10.66" y2="20.647" x2="1.082"/>
     <circle cx="10.66"  cy="19.151" r="2.701" stroke-width="0"/>
     <circle cx="10.66"  cy="43.357" r="2.7" stroke-width="0"/>
    </g>
   </g>
  </g>
 </g>
 <g transform="translate(229.497,341.458)">
  <g transform="matrix(1,0,0,1,0,0)">
   <g  id="schematic" stroke-width="0">
    <rect width="0.208" x="10.632" y="0.525"  height="0.208" id="connector1terminal" stroke-width="0"/>
    <rect width="0.208" x="10.648" y="64.314"  height="0.207" id="connector0terminal" stroke-width="0"/>
    <rect width="1.375" x="10.028" y="0.421"  height="10.339" id="connector1pin" stroke-width="0"/>
    <rect width="1.375" x="10.028" y="53"  height="11.767" id="connector0pin" stroke-width="0"/>
    <line fill="none"  stroke="#000000" stroke-linecap="round" y1="41.171" stroke-width="2.4" x1="10.752" y2="64.123" x2="10.752"/>
    <line fill="none"  stroke="#000000" stroke-linecap="round" y1="41.683" stroke-width="2.4" x1="21.171" y2="41.683" x2="0.333"/>
    <line fill="none"  stroke="#000000" stroke-linecap="round" y1="0.731" stroke-width="2.4" x1="10.752" y2="22.393" x2="10.752"/>
    <polygon fill="none" points="10.752,41.638,5.486,32.515,0.218,23.393,10.752,23.393,21.285,23.393,16.02,32.515"  stroke="#000000" stroke-linejoin="round" stroke-linecap="round" stroke-width="2.4"/>
    <path  stroke-width="0" d="M27.775,47.148l2.558,-2.037l1.465,-1.169l1.091,-0.871l3.461,9.58L27.775,47.148L27.775,47.148z"/>
    <path  stroke-width="0" d="M21.226,52.138l2.556,-2.039l1.464,-1.168l1.09,-0.87l3.469,9.581L21.226,52.138L21.226,52.138z"/>
    <line fill="none"  stroke="#000000" stroke-linecap="round" y1="37.577" stroke-width="2.4" x1="24.281" y2="48.061" x2="32.948"/>
    <line fill="none"  stroke="#000000" stroke-linecap="round" y1="45.54" stroke-width="2.4" x1="19.948" y2="52.274" x2="25.515"/>
   </g>
  </g>
 </g>
 <g transform="translate(432.844,134.69)">
  <g transform="matrix(0,1,-1,0,0,0)">
   <g  id="schematic" stroke-width="0">
    <rect width="1.893" x="15.154" y="0.896"  height="9.783" id="connector0pin" stroke-width="0"/>
    <rect width="0.867" x="15.633" y="0.914"  height="0.684" id="connector0terminal" stroke-width="0"/>
    <rect width="1.893" x="15.158" y="48.814"  height="9.78" id="connector1pin" stroke-width="0"/>
    <rect width="0.867" x="15.637" y="58.527"  height="0.686" id="connector1terminal" stroke-width="0"/>
    <g  stroke-width="0">
     <line fill="none"  stroke="#000000" stroke-linecap="round" y1="42.202" stroke-width="2.2284" x1="16.086" y2="58.306" x2="16.086"/>
     <line fill="none"  stroke="#000000" stroke-linecap="round" y1="0.939" stroke-width="2.2284" x1="16.086" y2="17.995" x2="16.086"/>
     <polygon points="27.158,17.405,33.629,9.459,36.969,14.444"  stroke-width="0"/>
     <polygon points="31.191,23.428,37.666,15.482,41.004,20.467"  stroke-width="0"/>
     <line fill="none"  stroke="#000000" y1="14.108" stroke-width="2" x1="32.08" y2="9.655" x2="38.727"/>
     <line fill="none"  stroke="#000000" y1="20.132" stroke-width="2" x1="36.115" y2="15.677" x2="42.762"/>
     <circle fill="none" cx="16.065"  cy="30.003" stroke="#000000" r="14.953" stroke-width="1.8499"/>
    </g>
    <g  stroke-width="0">
     <polyline fill="#FFFFFF" points="16.125,15.05,16.125,17.976,19.625,19.839,12.375,23.874,19.625,27.908,12.375,31.942,19.625,35.976,12.375,40.011,16.125,42.183,16.125,44.956"  stroke="#000000" stroke-linecap="round" stroke-width="2.2284"/>
    </g>
   </g>
  </g>
 </g>
 <line stroke="#404040" stroke-linecap="round" y1="257.056" x1="346.548" y2="240.952" stroke-width="2.4" x2="480.831"/>
 <line stroke="#404040" stroke-linecap="round" y1="214.536" x1="240.249" y2="219.35" stroke-width="2.4" x2="480.831"/>
 <line stroke="#404040" stroke-linecap="round" y1="299.876" x1="133.949" y2="242.281" stroke-width="2.4" x2="134.062"/>
 <line stroke="#404040" stroke-linecap="round" y1="342.087" x1="240.233" y2="284.801" stroke-width="2.4" x2="240.362"/>
 <line stroke="#404040" stroke-linecap="round" y1="257.06" x1="282.871" y2="260.183" stroke-width="2.4" x2="273.561"/>
 <line stroke="#404040" stroke-linecap="round" y1="214.54" x1="176.572" y2="217.663" stroke-width="2.4" x2="167.262"/>
 <line stroke="#404040" stroke-linecap="round" y1="150.757" x1="431.588" y2="155.255" stroke-width="2.4" x2="480.831"/>
 <line stroke="#404040" stroke-linecap="round" y1="65.8994" x1="135.468" y2="193.276" stroke-width="2.4" x2="133.949"/>
 <line stroke="#404040" stroke-linecap="round" y1="171.556" x1="27.65" y2="65.8994" stroke-width="2.4" x2="27.4678"/>
 <line stroke="#404040" stroke-linecap="round" y1="65.8994" x1="27.4678" y2="65.8994" stroke-width="2.4" x2="135.468"/>
 <circle fill="black" cx="135.468" cy="65.8994" stroke="none" r="3.6" stroke-width="0"/>
 <line stroke="#404040" stroke-linecap="round" y1="65.8994" x1="240.268" y2="235.796" stroke-width="2.4" x2="240.249"/>
 <line stroke="#404040" stroke-linecap="round" y1="65.8994" x1="135.468" y2="65.8994" stroke-width="2.4" x2="240.268"/>
 <line stroke="#404040" stroke-linecap="round" y1="405.875" x1="580.407" y2="405.899" stroke-width="2.4" x2="750.107"/>
 <circle fill="black" cx="580.407" cy="405.875" stroke="none" r="3.6" stroke-width="0"/>
 <line stroke="#404040" stroke-linecap="round" y1="405.899" x1="750.107" y2="278.316" stroke-width="2.4" x2="750.486"/>
 <line stroke="#404040" stroke-linecap="round" y1="405.899" x1="27.7073" y2="257.056" stroke-width="2.4" x2="27.65"/>
 <line stroke="#404040" stroke-linecap="round" y1="405.875" x1="133.949" y2="405.899" stroke-width="2.4" x2="27.7073"/>
 <circle fill="black" cx="133.949" cy="405.875" stroke="none" r="3.6" stroke-width="0"/>
 <line stroke="#404040" stroke-linecap="round" y1="217.201" x1="750.483" y2="198.76" stroke-width="2.4" x2="750.483"/>
 <line stroke="#404040" stroke-linecap="round" y1="198.76" x1="750.483" y2="198.76" stroke-width="2.4" x2="679.903"/>
 <line stroke="#404040" stroke-linecap="round" y1="405.875" x1="133.949" y2="405.899" stroke-width="2.4" x2="240.507"/>
 <circle fill="black" cx="133.949" cy="405.875" stroke="none" r="3.6" stroke-width="0"/>
 <line stroke="#404040" stroke-linecap="round" y1="405.899" x1="240.507" y2="405.875" stroke-width="2.4" x2="240.249"/>
 <circle fill="black" cx="240.249" cy="405.875" stroke="none" r="3.6" stroke-width="0"/>
 <line stroke="#404040" stroke-linecap="round" y1="405.899" x1="367.707" y2="150.761" stroke-width="2.4" x2="373.974"/>
 <circle fill="black" cx="367.707" cy="405.899" stroke="none" r="3.6" stroke-width="0"/>
 <line stroke="#404040" stroke-linecap="round" y1="405.875" x1="240.249" y2="405.899" stroke-width="2.4" x2="367.707"/>
 <circle fill="black" cx="240.249" cy="405.875" stroke="none" r="3.6" stroke-width="0"/>
 <line stroke="#404040" stroke-linecap="round" y1="405.899" x1="367.707" y2="405.875" stroke-width="2.4" x2="580.407"/>
 <circle fill="black" cx="580.407" cy="405.875" stroke="none" r="3.6" stroke-width="0"/>
 <g transform="translate(639.192,10.3998)">
  <g fill="#000000" font-family="'DroidSans'" stroke="none" font-style="normal" fill-opacity="1" font-weight="normal" id="schematicLabel" font-size="9">
   <text x="0" y="6.75">Teensy1</text>
  </g>
 </g>
 <g transform="translate(155.209,196.302)">
  <g fill="#000000" font-family="'DroidSans'" stroke="none" font-style="normal" fill-opacity="1" font-weight="normal" id="schematicLabel" font-size="9">
   <text x="0" y="6.75">Q1</text>
  </g>
 </g>
 <g transform="translate(262.308,238.822)">
  <g fill="#000000" font-family="'DroidSans'" stroke="none" font-style="normal" fill-opacity="1" font-weight="normal" id="schematicLabel" font-size="9">
   <text x="0" y="6.75">Q2</text>
  </g>
 </g>
 <g transform="translate(89.8995,337.525)">
  <g fill="#000000" font-family="'DroidSans'" stroke="none" font-style="normal" fill-opacity="1" font-weight="normal" id="schematicLabel" font-size="9">
   <text x="0" y="6.75">M1</text>
  </g>
 </g>
 <g transform="translate(54.3,158.206)">
  <g fill="#000000" font-family="'DroidSans'" stroke="none" font-style="normal" fill-opacity="1" font-weight="normal" id="schematicLabel" font-size="9">
   <text x="0" y="6.75">VCC1</text>
  </g>
 </g>
 <g transform="translate(208.29,189.843)">
  <g fill="#000000" font-family="'DroidSans'" stroke="none" font-style="normal" fill-opacity="1" font-weight="normal" id="schematicLabel" font-size="9">
   <text x="0" y="6.75">R1</text>
  </g>
 </g>
 <g transform="translate(322.589,231.563)">
  <g fill="#000000" font-family="'DroidSans'" stroke="none" font-style="normal" fill-opacity="1" font-weight="normal" id="schematicLabel" font-size="9">
   <text x="0" y="6.75">R2</text>
  </g>
 </g>
 <g transform="translate(271.663,351.058)">
  <g fill="#000000" font-family="'DroidSans'" stroke="none" font-style="normal" fill-opacity="1" font-weight="normal" id="schematicLabel" font-size="9">
   <text x="0" y="6.75">LED1</text>
   <text x="0" y="15.75">Red (633nm)</text>
  </g>
 </g>
 <g transform="translate(764.326,215.832)">
  <g fill="#000000" font-family="'DroidSans'" stroke="none" font-style="normal" fill-opacity="1" font-weight="normal" id="schematicLabel" font-size="9">
   <text x="0" y="6.75">S1</text>
  </g>
 </g>
 <g transform="translate(425.123,115.77)">
  <g fill="#000000" font-family="'DroidSans'" stroke="none" font-style="normal" fill-opacity="1" font-weight="normal" id="schematicLabel" font-size="9">
   <text x="0" y="6.75">R3</text>
  </g>
 </g>
</svg>
