<?xml version='1.0' encoding='UTF-8' standalone='no'?>
<!-- Created with Fritzing (http://www.fritzing.org/) -->
<svg xmlns="http://www.w3.org/2000/svg" width="11.9359in" x="0in" version="1.2" y="0in"  height="8.87132in" viewBox="0 0 859.385 638.735" baseProfile="tiny" xmlns:svg="http://www.w3.org/2000/svg">
 <g  id="watermark">
  <g >
   <path fill="#8C8C8C"  d="M751.568,636.407L749.643,630.843L749.608,630.843c0.017,0.214,0.032,0.427,0.044,0.64c0.012,0.183,0.021,0.375,0.028,0.574c0.007,0.203,0.011,0.385,0.011,0.551l0,3.8L748.943,636.408L748.943,630.052l1.199,0l1.791,5.181l0.025,0l1.8,-5.181L754.958,630.052l0,6.354L754.149,636.406l0,-3.854c0,-0.15,0.003,-0.324,0.009,-0.518s0.013,-0.38,0.021,-0.557c0.012,-0.207,0.021,-0.416,0.029,-0.625L754.176,630.852L752.232,636.407L751.568,636.407z"/>
   <path fill="#8C8C8C"  d="M759.268,636.407l-0.16,-0.661l-0.035,0c-0.095,0.131,-0.19,0.243,-0.286,0.338c-0.095,0.095,-0.2,0.172,-0.313,0.231c-0.113,0.062,-0.239,0.106,-0.378,0.136c-0.141,0.028,-0.3,0.042,-0.482,0.042c-0.2,0,-0.384,-0.026,-0.552,-0.084c-0.168,-0.057,-0.314,-0.144,-0.438,-0.261c-0.122,-0.116,-0.219,-0.265,-0.288,-0.443S756.232,635.317,756.232,635.072c0,-0.475,0.167,-0.841,0.501,-1.095c0.335,-0.256,0.845,-0.394,1.528,-0.418l0.799,-0.029l0,-0.301c0,-0.193,-0.021,-0.356,-0.063,-0.486s-0.103,-0.234,-0.183,-0.314s-0.178,-0.138,-0.295,-0.172c-0.117,-0.035,-0.251,-0.052,-0.402,-0.052c-0.241,0,-0.464,0.034,-0.671,0.104c-0.207,0.068,-0.407,0.152,-0.597,0.25L756.57,631.966c0.214,-0.117,0.453,-0.217,0.717,-0.298c0.264,-0.079,0.54,-0.12,0.83,-0.12c0.296,0,0.551,0.029,0.768,0.09c0.216,0.059,0.395,0.151,0.534,0.28c0.141,0.13,0.247,0.294,0.316,0.494c0.07,0.199,0.104,0.44,0.104,0.726l0,3.269L759.268,636.407L759.268,636.407zM757.817,635.856c0.178,0,0.341,-0.028,0.491,-0.084c0.149,-0.055,0.282,-0.138,0.391,-0.249c0.11,-0.111,0.196,-0.252,0.258,-0.422c0.063,-0.17,0.094,-0.369,0.094,-0.599l0,-0.43l-0.621,0.03c-0.262,0.012,-0.48,0.041,-0.656,0.086c-0.175,0.047,-0.317,0.113,-0.423,0.193c-0.105,0.084,-0.183,0.185,-0.229,0.301c-0.046,0.117,-0.068,0.25,-0.068,0.398c0,0.268,0.069,0.462,0.211,0.586C757.404,635.793,757.588,635.856,757.817,635.856z"/>
   <path fill="#8C8C8C"  d="M764.25,635.768l-0.034,0c-0.063,0.099,-0.139,0.191,-0.224,0.281c-0.085,0.088,-0.184,0.165,-0.296,0.231c-0.111,0.066,-0.237,0.118,-0.376,0.156c-0.139,0.037,-0.295,0.056,-0.47,0.056c-0.271,0,-0.517,-0.051,-0.738,-0.154c-0.223,-0.105,-0.416,-0.262,-0.575,-0.469s-0.282,-0.464,-0.369,-0.771c-0.087,-0.309,-0.13,-0.664,-0.13,-1.069c0,-0.408,0.043,-0.767,0.13,-1.076c0.086,-0.31,0.209,-0.567,0.369,-0.774c0.159,-0.209,0.352,-0.367,0.575,-0.473c0.222,-0.105,0.469,-0.158,0.738,-0.158c0.171,0,0.327,0.02,0.466,0.057s0.264,0.088,0.376,0.152c0.112,0.063,0.211,0.137,0.297,0.221s0.163,0.172,0.227,0.266l0.052,0c-0.009,-0.1,-0.018,-0.191,-0.026,-0.283c-0.006,-0.074,-0.012,-0.152,-0.018,-0.232c-0.005,-0.078,-0.009,-0.143,-0.009,-0.188L764.215,629.644l0.792,0l0,6.763l-0.641,0L764.25,635.768zM763.002,635.839c0.221,0,0.407,-0.033,0.56,-0.102c0.151,-0.065,0.274,-0.168,0.37,-0.304c0.094,-0.136,0.163,-0.308,0.209,-0.512c0.044,-0.204,0.069,-0.442,0.076,-0.716l0,-0.177c0,-0.292,-0.02,-0.552,-0.059,-0.78c-0.04,-0.229,-0.105,-0.418,-0.2,-0.574c-0.094,-0.154,-0.219,-0.271,-0.376,-0.351c-0.156,-0.08,-0.352,-0.119,-0.586,-0.119c-0.391,0,-0.679,0.157,-0.861,0.474c-0.185,0.315,-0.277,0.771,-0.277,1.359c0,0.605,0.092,1.058,0.277,1.354C762.315,635.689,762.605,635.839,763.002,635.839z"/>
   <path fill="#8C8C8C"  d="M768.404,636.493c-0.318,0,-0.609,-0.053,-0.874,-0.16c-0.263,-0.106,-0.49,-0.264,-0.68,-0.469c-0.19,-0.207,-0.338,-0.461,-0.442,-0.766c-0.104,-0.306,-0.156,-0.651,-0.156,-1.045s0.049,-0.744,0.144,-1.055c0.096,-0.311,0.229,-0.574,0.405,-0.789c0.174,-0.216,0.382,-0.381,0.623,-0.492c0.241,-0.113,0.51,-0.17,0.802,-0.17c0.287,0,0.545,0.051,0.772,0.153c0.229,0.104,0.423,0.248,0.583,0.435c0.159,0.188,0.282,0.412,0.367,0.674c0.087,0.263,0.13,0.554,0.13,0.873l0,0.49l-3.008,0c0.015,0.559,0.133,0.971,0.354,1.234c0.222,0.263,0.551,0.396,0.987,0.396c0.149,0,0.285,-0.008,0.411,-0.021s0.248,-0.035,0.365,-0.063c0.118,-0.026,0.23,-0.063,0.342,-0.104s0.222,-0.089,0.334,-0.142l0,0.704c-0.116,0.055,-0.229,0.104,-0.341,0.144c-0.112,0.041,-0.226,0.074,-0.343,0.102c-0.117,0.024,-0.239,0.045,-0.365,0.056S768.553,636.493,768.404,636.493zM768.209,632.205c-0.331,0,-0.592,0.112,-0.783,0.339c-0.193,0.227,-0.307,0.555,-0.338,0.985l2.14,0c0,-0.196,-0.021,-0.378,-0.06,-0.541c-0.039,-0.164,-0.1,-0.304,-0.183,-0.419s-0.187,-0.205,-0.315,-0.27C768.542,632.235,768.389,632.205,768.209,632.205z"/>
   <path fill="#8C8C8C"  d="M777.218,636.407l-0.729,-2.678c-0.012,-0.053,-0.026,-0.111,-0.044,-0.176c-0.017,-0.065,-0.034,-0.136,-0.051,-0.207c-0.019,-0.072,-0.036,-0.146,-0.055,-0.223c-0.02,-0.074,-0.037,-0.148,-0.055,-0.222c-0.041,-0.169,-0.083,-0.341,-0.126,-0.521l-0.024,0c-0.041,0.182,-0.08,0.356,-0.117,0.524c-0.032,0.146,-0.066,0.294,-0.104,0.448c-0.037,0.152,-0.069,0.283,-0.103,0.391l-0.75,2.66l-0.917,0l-1.221,-4.771l0.83,0l0.57,2.539c0.029,0.129,0.059,0.27,0.086,0.423c0.028,0.151,0.057,0.303,0.082,0.452c0.026,0.148,0.05,0.288,0.07,0.421c0.02,0.132,0.037,0.238,0.049,0.322l0.025,0c0.015,-0.074,0.034,-0.177,0.059,-0.302c0.025,-0.126,0.052,-0.26,0.083,-0.399c0.031,-0.141,0.063,-0.28,0.093,-0.417c0.032,-0.139,0.063,-0.254,0.091,-0.351l0.778,-2.69l0.853,0l0.748,2.69c0.025,0.098,0.056,0.215,0.089,0.348c0.033,0.135,0.065,0.27,0.098,0.407c0.032,0.139,0.061,0.271,0.087,0.397c0.025,0.127,0.045,0.231,0.056,0.315l0.026,0c0.01,-0.074,0.022,-0.177,0.042,-0.302c0.02,-0.126,0.042,-0.265,0.067,-0.415c0.025,-0.149,0.054,-0.306,0.084,-0.464c0.03,-0.157,0.062,-0.306,0.094,-0.44L778.578,631.634l0.809,0l-1.234,4.771L777.218,636.405L777.218,636.407z"/>
   <path fill="#8C8C8C"  d="M780.173,630.344c0,-0.175,0.045,-0.3,0.133,-0.379c0.088,-0.078,0.197,-0.117,0.328,-0.117c0.063,0,0.123,0.011,0.181,0.028c0.056,0.019,0.104,0.049,0.147,0.089c0.042,0.041,0.075,0.092,0.101,0.154c0.023,0.063,0.037,0.137,0.037,0.224c0,0.168,-0.045,0.293,-0.138,0.376c-0.092,0.083,-0.2,0.123,-0.327,0.123c-0.131,0,-0.24,-0.04,-0.328,-0.12C780.219,630.641,780.173,630.514,780.173,630.344zM781.025,636.407l-0.791,0L780.234,631.634l0.791,0L781.025,636.407z"/>
   <path fill="#8C8C8C"  d="M783.981,635.846c0.052,0,0.111,-0.003,0.176,-0.01c0.066,-0.006,0.128,-0.013,0.189,-0.021c0.061,-0.009,0.116,-0.019,0.167,-0.031c0.051,-0.011,0.089,-0.021,0.115,-0.028l0,0.6c-0.037,0.017,-0.085,0.035,-0.144,0.052c-0.059,0.018,-0.122,0.033,-0.191,0.046c-0.068,0.015,-0.142,0.022,-0.217,0.03s-0.148,0.011,-0.221,0.011c-0.18,0,-0.347,-0.021,-0.5,-0.068c-0.153,-0.048,-0.286,-0.126,-0.397,-0.239c-0.111,-0.112,-0.198,-0.267,-0.263,-0.458c-0.063,-0.192,-0.095,-0.437,-0.095,-0.729L782.6,632.23l-0.674,0L781.926,631.878l0.673,-0.339l0.339,-0.999l0.456,0l0,1.096l1.199,0l0,0.596l-1.199,0l0,2.769c0,0.281,0.045,0.492,0.137,0.636C783.623,635.775,783.772,635.846,783.981,635.846z"/>
   <path fill="#8C8C8C"  d="M788.536,636.407l0,-3.073c0,-0.377,-0.076,-0.659,-0.228,-0.848c-0.152,-0.188,-0.391,-0.282,-0.715,-0.282c-0.234,0,-0.433,0.037,-0.592,0.111c-0.158,0.076,-0.286,0.188,-0.384,0.336c-0.097,0.148,-0.166,0.328,-0.208,0.544c-0.042,0.214,-0.063,0.461,-0.063,0.739l0,2.473l-0.791,0L785.555,629.644l0.791,0l0,2.008l-0.034,0.626l0.044,0c0.072,-0.124,0.158,-0.232,0.258,-0.323s0.209,-0.167,0.328,-0.229c0.118,-0.061,0.245,-0.104,0.378,-0.135c0.133,-0.027,0.27,-0.043,0.408,-0.043c0.531,0,0.93,0.139,1.198,0.416c0.268,0.275,0.401,0.719,0.401,1.326l0,3.117L788.536,636.407L788.536,636.407z"/>
  </g>
  <g >
   <path fill="#8C8C8C"  d="M810.296,636.391l-1.324,0L808.972,630.037l3.642,0l0,1.104l-2.316,0l0,1.639l2.156,0l0,1.1l-2.156,0L810.296,636.391L810.296,636.391z"/>
   <path fill="#8C8C8C"  d="M816.329,631.441c0.035,0,0.074,0.002,0.116,0.002c0.042,0.002,0.083,0.006,0.12,0.01c0.041,0.005,0.076,0.009,0.11,0.014c0.031,0.004,0.059,0.01,0.075,0.016l0,1.244c-0.022,-0.008,-0.056,-0.012,-0.095,-0.018c-0.04,-0.007,-0.083,-0.012,-0.128,-0.018c-0.045,-0.004,-0.09,-0.006,-0.133,-0.008c-0.044,-0.002,-0.08,-0.002,-0.108,-0.002c-0.171,0,-0.328,0.021,-0.472,0.064c-0.146,0.043,-0.269,0.113,-0.37,0.211s-0.183,0.225,-0.239,0.383c-0.057,0.157,-0.084,0.352,-0.084,0.581l0,2.474l-1.326,0L813.795,631.532l1.005,0l0.194,0.73l0.066,0c0.068,-0.125,0.145,-0.238,0.226,-0.34c0.081,-0.103,0.172,-0.189,0.272,-0.259c0.1,-0.071,0.212,-0.126,0.338,-0.165C816.022,631.461,816.168,631.441,816.329,631.441z"/>
   <path fill="#8C8C8C"  d="M817.647,630.276c0,-0.125,0.018,-0.228,0.056,-0.311c0.038,-0.084,0.089,-0.15,0.154,-0.2c0.065,-0.051,0.142,-0.086,0.229,-0.106c0.088,-0.02,0.184,-0.03,0.281,-0.03c0.099,0,0.191,0.01,0.277,0.03c0.088,0.02,0.164,0.055,0.229,0.106c0.066,0.05,0.117,0.116,0.156,0.2c0.04,0.083,0.059,0.186,0.059,0.311c0,0.122,-0.019,0.225,-0.059,0.309c-0.039,0.084,-0.09,0.151,-0.156,0.203c-0.063,0.05,-0.142,0.086,-0.229,0.108c-0.086,0.021,-0.18,0.032,-0.277,0.032c-0.099,0,-0.191,-0.012,-0.281,-0.032c-0.088,-0.021,-0.164,-0.059,-0.229,-0.108c-0.065,-0.051,-0.116,-0.119,-0.154,-0.203C817.666,630.501,817.647,630.398,817.647,630.276zM819.029,636.391l-1.325,0L817.704,631.532l1.325,0L819.029,636.391z"/>
   <path fill="#8C8C8C"  d="M822.438,635.422c0.13,0,0.254,-0.016,0.371,-0.045c0.117,-0.027,0.235,-0.064,0.357,-0.107l0,0.986c-0.124,0.063,-0.278,0.116,-0.463,0.157c-0.184,0.042,-0.385,0.063,-0.603,0.063c-0.211,0,-0.408,-0.024,-0.59,-0.073c-0.185,-0.05,-0.342,-0.137,-0.476,-0.259c-0.133,-0.123,-0.237,-0.288,-0.313,-0.495c-0.077,-0.208,-0.114,-0.468,-0.114,-0.781L820.607,632.527l-0.636,0L819.971,631.966l0.729,-0.443l0.383,-1.024l0.848,0l0,1.034l1.184,0l0,0.995l-1.184,0l0,2.343c0,0.188,0.048,0.327,0.141,0.417C822.165,635.377,822.287,635.422,822.438,635.422z"/>
   <path fill="#8C8C8C"  d="M827.311,636.391L823.738,636.391l0,-0.781l1.985,-3.064l-1.853,0L823.87,631.532l3.355,0l0,0.859l-1.92,2.985l2.004,0L827.311,636.391L827.311,636.391z"/>
   <path fill="#8C8C8C"  d="M828.25,630.276c0,-0.125,0.02,-0.228,0.057,-0.311c0.038,-0.084,0.09,-0.15,0.153,-0.2c0.065,-0.051,0.144,-0.086,0.23,-0.106s0.182,-0.03,0.28,-0.03c0.098,0,0.19,0.01,0.277,0.03c0.088,0.02,0.164,0.055,0.229,0.106c0.064,0.05,0.117,0.116,0.156,0.2c0.038,0.083,0.059,0.186,0.059,0.311c0,0.122,-0.021,0.225,-0.059,0.309c-0.039,0.084,-0.092,0.151,-0.156,0.203c-0.064,0.05,-0.143,0.086,-0.229,0.108c-0.086,0.021,-0.18,0.032,-0.277,0.032c-0.099,0,-0.192,-0.012,-0.28,-0.032c-0.088,-0.021,-0.165,-0.059,-0.23,-0.108c-0.063,-0.051,-0.115,-0.119,-0.153,-0.203C828.269,630.501,828.25,630.398,828.25,630.276zM829.632,636.391L828.308,636.391L828.308,631.532l1.324,0L829.632,636.391z"/>
   <path fill="#8C8C8C"  d="M835.282,636.391L833.958,636.391l0,-2.839c0,-0.351,-0.053,-0.613,-0.158,-0.787c-0.105,-0.176,-0.274,-0.265,-0.508,-0.265c-0.173,0,-0.317,0.035,-0.434,0.104c-0.116,0.07,-0.209,0.173,-0.276,0.31c-0.066,0.136,-0.115,0.304,-0.146,0.504c-0.029,0.2,-0.043,0.429,-0.043,0.687l0,2.286L831.068,636.391L831.068,631.532l1.012,0l0.181,0.621l0.073,0c0.069,-0.124,0.153,-0.23,0.253,-0.321c0.102,-0.089,0.21,-0.163,0.328,-0.221s0.245,-0.103,0.378,-0.128c0.136,-0.028,0.271,-0.043,0.409,-0.043c0.237,0,0.454,0.033,0.647,0.104c0.194,0.067,0.36,0.174,0.5,0.318c0.141,0.146,0.247,0.328,0.321,0.555c0.075,0.225,0.113,0.492,0.113,0.807l0,3.168L835.282,636.391L835.282,636.391z"/>
   <path fill="#8C8C8C"  d="M840.712,631.541l0,0.722l-0.708,0.221c0.059,0.1,0.1,0.201,0.122,0.308c0.021,0.106,0.033,0.22,0.033,0.343c0,0.246,-0.039,0.471,-0.116,0.676c-0.078,0.203,-0.193,0.379,-0.349,0.522c-0.152,0.146,-0.346,0.258,-0.578,0.337c-0.23,0.08,-0.5,0.119,-0.808,0.119c-0.067,0,-0.141,-0.003,-0.218,-0.012c-0.078,-0.007,-0.137,-0.015,-0.175,-0.021c-0.057,0.049,-0.104,0.101,-0.137,0.152c-0.033,0.054,-0.049,0.117,-0.049,0.193c0,0.061,0.018,0.108,0.056,0.146s0.087,0.065,0.147,0.087c0.06,0.022,0.133,0.036,0.214,0.044s0.165,0.012,0.251,0.012l0.756,0c0.236,0,0.446,0.025,0.631,0.081c0.186,0.055,0.342,0.135,0.472,0.246c0.129,0.109,0.229,0.249,0.299,0.419c0.069,0.169,0.104,0.372,0.104,0.605c0,0.275,-0.054,0.523,-0.164,0.745c-0.109,0.224,-0.274,0.41,-0.494,0.565c-0.219,0.154,-0.488,0.273,-0.813,0.355c-0.324,0.082,-0.699,0.123,-1.126,0.123c-0.329,0,-0.618,-0.031,-0.864,-0.094c-0.247,-0.063,-0.451,-0.15,-0.617,-0.27c-0.165,-0.116,-0.288,-0.258,-0.371,-0.424c-0.084,-0.164,-0.125,-0.353,-0.125,-0.561c0,-0.177,0.031,-0.33,0.093,-0.46c0.061,-0.131,0.143,-0.243,0.243,-0.336c0.102,-0.093,0.218,-0.168,0.347,-0.227c0.129,-0.058,0.262,-0.103,0.396,-0.134c-0.061,-0.026,-0.12,-0.063,-0.181,-0.109c-0.059,-0.047,-0.113,-0.1,-0.161,-0.159c-0.047,-0.063,-0.086,-0.129,-0.116,-0.203c-0.031,-0.072,-0.047,-0.15,-0.047,-0.23c0,-0.093,0.015,-0.178,0.04,-0.252c0.029,-0.076,0.068,-0.146,0.12,-0.212c0.052,-0.064,0.117,-0.126,0.196,-0.184c0.078,-0.06,0.166,-0.117,0.264,-0.18c-0.254,-0.11,-0.456,-0.287,-0.604,-0.53c-0.15,-0.244,-0.225,-0.529,-0.225,-0.859c0,-0.26,0.04,-0.494,0.121,-0.699c0.081,-0.207,0.2,-0.381,0.356,-0.523c0.155,-0.144,0.35,-0.252,0.582,-0.328c0.231,-0.076,0.499,-0.113,0.801,-0.113c0.057,0,0.122,0.004,0.194,0.012s0.145,0.018,0.216,0.025c0.07,0.01,0.137,0.021,0.196,0.033c0.061,0.01,0.109,0.021,0.146,0.029L840.712,631.541L840.712,631.541zM837.235,637.078c0,0.073,0.017,0.145,0.047,0.211c0.03,0.068,0.08,0.129,0.15,0.182c0.068,0.052,0.16,0.094,0.272,0.124c0.113,0.03,0.252,0.046,0.417,0.046c0.452,0,0.792,-0.063,1.021,-0.191c0.229,-0.127,0.343,-0.298,0.343,-0.514c0,-0.183,-0.07,-0.304,-0.213,-0.364c-0.143,-0.06,-0.361,-0.091,-0.66,-0.091l-0.613,0c-0.077,0,-0.162,0.009,-0.252,0.027c-0.09,0.018,-0.172,0.052,-0.248,0.099c-0.075,0.046,-0.139,0.108,-0.188,0.184S837.235,636.963,837.235,637.078zM837.714,633.123c0,0.263,0.049,0.468,0.147,0.612c0.098,0.146,0.248,0.217,0.447,0.217c0.209,0,0.358,-0.07,0.451,-0.217c0.094,-0.145,0.14,-0.35,0.14,-0.612c0,-0.261,-0.046,-0.468,-0.137,-0.622c-0.092,-0.152,-0.243,-0.229,-0.454,-0.229C837.911,632.271,837.714,632.554,837.714,633.123z"/>
   <path fill="#8C8C8C"  d="M841.462,635.77c0,-0.136,0.02,-0.251,0.059,-0.346c0.04,-0.095,0.094,-0.172,0.163,-0.229c0.069,-0.058,0.149,-0.101,0.244,-0.126c0.092,-0.026,0.191,-0.039,0.299,-0.039c0.102,0,0.198,0.013,0.289,0.039c0.092,0.025,0.172,0.068,0.242,0.126c0.068,0.057,0.123,0.134,0.163,0.229c0.041,0.095,0.062,0.21,0.062,0.346c0,0.13,-0.021,0.242,-0.062,0.335c-0.04,0.093,-0.095,0.17,-0.163,0.229c-0.07,0.062,-0.15,0.104,-0.242,0.133c-0.091,0.027,-0.188,0.042,-0.289,0.042c-0.106,0,-0.207,-0.015,-0.299,-0.042c-0.095,-0.027,-0.175,-0.071,-0.244,-0.133c-0.069,-0.061,-0.123,-0.138,-0.163,-0.229C841.48,636.012,841.462,635.9,841.462,635.77z"/>
   <path fill="#8C8C8C"  d="M848.421,633.952c0,0.406,-0.052,0.767,-0.153,1.079c-0.104,0.313,-0.251,0.576,-0.443,0.79c-0.192,0.215,-0.428,0.378,-0.704,0.489c-0.277,0.111,-0.587,0.167,-0.933,0.167c-0.321,0,-0.617,-0.056,-0.886,-0.167c-0.271,-0.112,-0.503,-0.274,-0.698,-0.489c-0.195,-0.214,-0.35,-0.479,-0.458,-0.79c-0.11,-0.313,-0.165,-0.673,-0.165,-1.079c0,-0.402,0.051,-0.76,0.154,-1.072c0.103,-0.314,0.25,-0.576,0.442,-0.789C844.769,631.877,845.003,631.716,845.278,631.607s0.587,-0.164,0.937,-0.164c0.319,0,0.615,0.055,0.886,0.164c0.27,0.111,0.502,0.271,0.695,0.484c0.197,0.213,0.351,0.477,0.459,0.789C848.365,633.192,848.421,633.55,848.421,633.952zM845.335,633.952c0,0.484,0.068,0.851,0.205,1.093c0.137,0.246,0.357,0.368,0.664,0.368c0.306,0,0.524,-0.123,0.66,-0.37c0.137,-0.245,0.205,-0.608,0.205,-1.091s-0.068,-0.846,-0.205,-1.084c-0.136,-0.238,-0.358,-0.357,-0.668,-0.357c-0.305,0,-0.523,0.119,-0.659,0.357C845.402,633.107,845.335,633.47,845.335,633.952z"/>
   <path fill="#8C8C8C"  d="M852.141,631.441c0.035,0,0.073,0.002,0.115,0.002c0.042,0.002,0.083,0.006,0.12,0.01c0.04,0.005,0.076,0.009,0.109,0.014c0.033,0.004,0.059,0.01,0.076,0.016l0,1.244c-0.023,-0.008,-0.055,-0.012,-0.095,-0.018c-0.041,-0.007,-0.083,-0.012,-0.13,-0.018c-0.045,-0.004,-0.089,-0.006,-0.132,-0.008c-0.045,-0.002,-0.08,-0.002,-0.108,-0.002c-0.171,0,-0.328,0.021,-0.473,0.064c-0.144,0.043,-0.267,0.113,-0.37,0.211c-0.102,0.098,-0.182,0.225,-0.237,0.383c-0.058,0.157,-0.084,0.352,-0.084,0.581l0,2.474l-1.326,0L849.606,631.532l1.004,0l0.195,0.73l0.065,0c0.068,-0.125,0.146,-0.238,0.226,-0.34c0.081,-0.103,0.172,-0.189,0.271,-0.259c0.101,-0.071,0.213,-0.126,0.339,-0.165C851.835,631.461,851.979,631.441,852.141,631.441z"/>
   <path fill="#8C8C8C"  d="M857.449,631.541l0,0.722l-0.708,0.221c0.058,0.1,0.099,0.201,0.121,0.308s0.034,0.22,0.034,0.343c0,0.246,-0.039,0.471,-0.116,0.676c-0.079,0.203,-0.194,0.379,-0.349,0.522c-0.153,0.146,-0.348,0.258,-0.578,0.337c-0.232,0.08,-0.501,0.119,-0.809,0.119c-0.067,0,-0.141,-0.003,-0.219,-0.012c-0.078,-0.007,-0.135,-0.015,-0.173,-0.021c-0.058,0.049,-0.104,0.101,-0.137,0.152c-0.034,0.054,-0.05,0.117,-0.05,0.193c0,0.061,0.019,0.108,0.057,0.146c0.037,0.037,0.086,0.065,0.146,0.087c0.062,0.021,0.133,0.036,0.215,0.044c0.08,0.008,0.164,0.012,0.251,0.012l0.756,0c0.234,0,0.445,0.025,0.63,0.081c0.186,0.055,0.343,0.135,0.472,0.246c0.129,0.109,0.229,0.249,0.298,0.419c0.07,0.169,0.104,0.372,0.104,0.605c0,0.275,-0.054,0.523,-0.165,0.745c-0.109,0.224,-0.275,0.41,-0.493,0.565c-0.219,0.154,-0.489,0.273,-0.815,0.355c-0.323,0.082,-0.698,0.123,-1.125,0.123c-0.329,0,-0.617,-0.031,-0.864,-0.094c-0.246,-0.063,-0.451,-0.15,-0.617,-0.27c-0.164,-0.116,-0.287,-0.258,-0.371,-0.424c-0.083,-0.164,-0.124,-0.353,-0.124,-0.561c0,-0.177,0.03,-0.33,0.091,-0.46c0.063,-0.131,0.144,-0.243,0.244,-0.336c0.103,-0.093,0.217,-0.168,0.346,-0.227c0.129,-0.058,0.263,-0.103,0.398,-0.134c-0.062,-0.026,-0.121,-0.063,-0.182,-0.109c-0.06,-0.047,-0.113,-0.1,-0.16,-0.159c-0.047,-0.063,-0.087,-0.129,-0.117,-0.203c-0.03,-0.073,-0.045,-0.151,-0.045,-0.231c0,-0.093,0.014,-0.178,0.04,-0.252c0.027,-0.076,0.067,-0.146,0.12,-0.212c0.051,-0.064,0.117,-0.126,0.194,-0.184c0.078,-0.06,0.166,-0.117,0.266,-0.18c-0.255,-0.109,-0.456,-0.287,-0.606,-0.529c-0.148,-0.244,-0.223,-0.531,-0.223,-0.861c0,-0.26,0.039,-0.493,0.121,-0.698c0.081,-0.207,0.199,-0.382,0.354,-0.524c0.156,-0.143,0.351,-0.252,0.583,-0.328c0.231,-0.074,0.499,-0.111,0.8,-0.111c0.059,0,0.123,0.003,0.195,0.011s0.146,0.017,0.215,0.026c0.072,0.009,0.138,0.021,0.198,0.031c0.062,0.012,0.108,0.021,0.145,0.03L857.449,631.54L857.449,631.541zM853.973,637.078c0,0.073,0.017,0.145,0.046,0.211c0.031,0.068,0.081,0.129,0.149,0.182c0.07,0.052,0.161,0.094,0.273,0.124c0.114,0.03,0.252,0.046,0.418,0.046c0.451,0,0.792,-0.063,1.021,-0.191c0.229,-0.127,0.343,-0.298,0.343,-0.514c0,-0.183,-0.071,-0.304,-0.214,-0.364s-0.361,-0.091,-0.66,-0.091l-0.612,0c-0.079,0,-0.163,0.009,-0.252,0.027c-0.09,0.019,-0.173,0.052,-0.248,0.099c-0.076,0.046,-0.139,0.108,-0.188,0.184C853.999,636.865,853.973,636.963,853.973,637.078zM854.45,633.123c0,0.263,0.049,0.468,0.148,0.612c0.099,0.146,0.248,0.217,0.447,0.217c0.209,0,0.358,-0.07,0.451,-0.217c0.094,-0.145,0.141,-0.35,0.141,-0.612c0,-0.261,-0.046,-0.468,-0.138,-0.622c-0.092,-0.152,-0.243,-0.229,-0.454,-0.229C854.648,632.271,854.45,632.554,854.45,633.123z"/>
  </g>
  <g >
   <path fill="#8C8C8C"  d="M803.043,628.661l-8.146,0c-0.532,0,-0.965,0.432,-0.965,0.964l0,8.146c0,0.531,0.433,0.964,0.965,0.964l5.55,0l3.557,-3.558L804.004,629.625C804.007,629.092,803.575,628.661,803.043,628.661zM801.366,632.39l-1.075,0l0,0.401l1.075,0l0,1.601l-2.196,0l0,2.058l-2.572,0l0,-4.67l0.988,-0.99l3.779,0l0,1.603l0.001,0L801.366,632.39z"/>
  </g>
 </g>
 <g partID="56670">
  <g transform="translate(409.477,194.464)">
   <g transform="matrix(0,1,-1,0,0,0)">
    <g  id="schematic">
     <rect width="167.133" x="22.432" y="28.946" fill="none"  height="360.938" stroke="#000000" stroke-linejoin="round" stroke-linecap="round" stroke-width="2.415"/>
     <line fill="none"  stroke="#000000" stroke-linejoin="round" stroke-linecap="round" y1="71.386" stroke-width="2.2495" x1="1.277" y2="71.386" x2="22.513"/>
     <line fill="none"  stroke="#000000" stroke-linejoin="round" stroke-linecap="round" y1="134.045" stroke-width="2.415" x1="1.245" y2="134.045" x2="22.432"/>
     <line fill="none"  stroke="#000000" stroke-linejoin="round" stroke-linecap="round" y1="155.28" stroke-width="2.415" x1="1.245" y2="155.28" x2="22.432"/>
     <line fill="none"  stroke="#000000" stroke-linejoin="round" stroke-linecap="round" y1="176.151" stroke-width="2.415" x1="1.245" y2="176.151" x2="22.432"/>
     <line fill="none"  stroke="#000000" stroke-linejoin="round" stroke-linecap="round" y1="197.752" stroke-width="2.415" x1="1.245" y2="197.752" x2="22.432"/>
     <line fill="none"  stroke="#000000" stroke-linejoin="round" stroke-linecap="round" y1="219.351" stroke-width="2.415" x1="1.245" y2="219.351" x2="22.432"/>
     <line fill="none"  stroke="#000000" stroke-linejoin="round" stroke-linecap="round" y1="240.95" stroke-width="2.415" x1="1.245" y2="240.95" x2="22.432"/>
     <line fill="none"  stroke="#000000" stroke-linejoin="round" stroke-linecap="round" y1="113.982" stroke-width="2.415" x1="210.807" y2="113.982" x2="189.564"/>
     <line fill="none"  stroke="#000000" stroke-linejoin="round" stroke-linecap="round" y1="135.219" stroke-width="2.415" x1="210.807" y2="135.219" x2="189.564"/>
     <line fill="none"  stroke="#000000" stroke-linejoin="round" stroke-linecap="round" y1="156.455" stroke-width="2.415" x1="210.807" y2="156.455" x2="189.564"/>
     <line fill="none"  stroke="#000000" stroke-linejoin="round" stroke-linecap="round" y1="177.691" stroke-width="2.415" x1="210.807" y2="177.691" x2="189.564"/>
     <line fill="none"  stroke="#000000" stroke-linejoin="round" stroke-linecap="round" y1="198.928" stroke-width="2.415" x1="210.807" y2="198.928" x2="189.564"/>
     <line fill="none"  stroke="#000000" stroke-linejoin="round" stroke-linecap="round" y1="220.165" stroke-width="2.415" x1="210.807" y2="220.165" x2="189.564"/>
     <line fill="none"  stroke="#000000" stroke-linejoin="round" stroke-linecap="round" y1="241.4" stroke-width="2.415" x1="210.807" y2="241.4" x2="189.564"/>
     <line fill="none"  stroke="#000000" stroke-linejoin="round" stroke-linecap="round" y1="262.636" stroke-width="2.415" x1="210.807" y2="262.636" x2="189.564"/>
     <line fill="none"  stroke="#000000" stroke-linejoin="round" stroke-linecap="round" y1="283.874" stroke-width="2.415" x1="210.807" y2="283.874" x2="189.564"/>
     <line fill="none"  stroke="#000000" stroke-linejoin="round" stroke-linecap="round" y1="305.11" stroke-width="2.415" x1="210.807" y2="305.11" x2="189.564"/>
     <line fill="none"  stroke="#000000" stroke-linejoin="round" stroke-linecap="round" y1="326.346" stroke-width="2.415" x1="210.807" y2="326.346" x2="189.564"/>
     <line fill="none"  stroke="#000000" stroke-linejoin="round" stroke-linecap="round" y1="347.581" stroke-width="2.415" x1="210.807" y2="347.581" x2="189.564"/>
     <text font-family="DroidSans"  transform="matrix(1, 0, 0, 1, 30.4038, 74.1034)" font-size="9.98889">RST</text>
     <text font-family="DroidSans"  transform="matrix(1, 0, 0, 1, 30.4038, 95.3632)" font-size="9.98889">AREF</text>
     <text font-family="DroidSans"  transform="matrix(1, 0, 0, 1, 32.2759, 136.536)" font-size="9.98889">F0 - A0</text>
     <text font-family="DroidSans"  transform="matrix(1, 0, 0, 1, 32.2759, 157.972)" font-size="9.98889">F1 - A1</text>
     <text font-family="DroidSans"  transform="matrix(1, 0, 0, 1, 32.2759, 179.411)" font-size="9.98889">F4 - A2</text>
     <text font-family="DroidSans"  transform="matrix(1, 0, 0, 1, 32.2759, 200.848)" font-size="9.98889">F5 - A3</text>
     <text font-family="DroidSans"  transform="matrix(1, 0, 0, 1, 32.2759, 222.286)" font-size="9.98889">F6 - A4</text>
     <text font-family="DroidSans"  transform="matrix(1, 0, 0, 1, 32.2759, 243.725)" font-size="9.98889">F7 - A5</text>
     <line fill="none"  stroke="#000000" stroke-linejoin="round" stroke-linecap="round" y1="262.55" stroke-width="2.415" x1="1.245" y2="262.55" x2="22.432"/>
     <line fill="none"  stroke="#000000" stroke-linejoin="round" stroke-linecap="round" y1="284.151" stroke-width="2.415" x1="1.245" y2="284.151" x2="22.432"/>
     <line fill="none"  stroke="#000000" stroke-linejoin="round" stroke-linecap="round" y1="305.751" stroke-width="2.415" x1="1.245" y2="305.751" x2="22.432"/>
     <line fill="none"  stroke="#000000" stroke-linejoin="round" stroke-linecap="round" y1="327.351" stroke-width="2.415" x1="1.245" y2="327.351" x2="22.432"/>
     <line fill="none"  stroke="#000000" stroke-linejoin="round" stroke-linecap="round" y1="348.95" stroke-width="2.415" x1="1.245" y2="348.95" x2="22.432"/>
     <line fill="none"  stroke="#000000" stroke-linejoin="round" stroke-linecap="round" y1="370.551" stroke-width="2.415" x1="1.245" y2="370.551" x2="22.432"/>
     <text font-family="DroidSans"  transform="matrix(1, 0, 0, 1, 32.2759, 263.946)" font-size="9.98889">B6 - A6</text>
     <text font-family="DroidSans"  transform="matrix(1, 0, 0, 1, 32.2759, 285.382)" font-size="9.98889">B5 - A7</text>
     <text font-family="DroidSans"  transform="matrix(1, 0, 0, 1, 32.2759, 306.821)" font-size="9.98889">B4 - A8</text>
     <text font-family="DroidSans"  transform="matrix(1, 0, 0, 1, 32.2759, 328.259)" font-size="9.98889">D7 - A9</text>
     <text font-family="DroidSans"  transform="matrix(1, 0, 0, 1, 32.2759, 349.696)" font-size="9.98889">D6 - A10</text>
     <text font-family="DroidSans"  transform="matrix(1, 0, 0, 1, 32.2759, 371.135)" font-size="9.98889">D4 - A11</text>
     <line fill="none"  stroke="#000000" stroke-linejoin="round" stroke-linecap="round" y1="28.946" stroke-width="1.9517" x1="106.064" y2="7.71099" x2="106.064"/>
     <line fill="none"  stroke="#000000" stroke-linejoin="round" stroke-linecap="round" y1="92.4109" stroke-width="1.9517" x1="22.404" y2="92.4109" x2="1.169"/>
     <text font-family="DroidSans"  transform="matrix(1, 0, 0, 1, 98.723, 46.1074)" font-size="9.98889">Vcc</text>
     <text font-family="DroidSans"  transform="matrix(0, 1, -1, 0, 75.8866, 222.454)" font-size="9.98889">Analog Input</text>
     <text font-family="DroidSans"  transform="matrix(1, 0, 0, 1, 165.787, 116.42)" font-size="9.98889">D5</text>
     <text font-family="DroidSans"  transform="matrix(1, 0, 0, 1, 166.597, 138.029)" font-size="9.98889">C7</text>
     <text font-family="DroidSans"  transform="matrix(1, 0, 0, 1, 166.597, 159.211)" font-size="9.98889">C6</text>
     <text font-family="DroidSans"  transform="matrix(1, 0, 0, 1, 165.787, 179.967)" font-size="9.98889">D3</text>
     <text font-family="DroidSans"  transform="matrix(1, 0, 0, 1, 165.787, 201.578)" font-size="9.98889">D2</text>
     <text font-family="DroidSans"  transform="matrix(1, 0, 0, 1, 165.787, 222.336)" font-size="9.98889">D1</text>
     <text font-family="DroidSans"  transform="matrix(1, 0, 0, 1, 165.787, 243.941)" font-size="9.98889">D0</text>
     <text font-family="DroidSans"  transform="matrix(1, 0, 0, 1, 166.416, 265.125)" font-size="9.98889">B7</text>
     <text font-family="DroidSans"  transform="matrix(1, 0, 0, 1, 166.416, 286.732)" font-size="9.98889">B3</text>
     <text font-family="DroidSans"  transform="matrix(1, 0, 0, 1, 192.854, 280.674)" font-size="6.99219">PWM</text>
     <text font-family="DroidSans"  transform="matrix(1, 0, 0, 1, 192.854, 259.336)" font-size="6.99219">PWM</text>
     <text font-family="DroidSans"  transform="matrix(1, 0, 0, 1, 193.847, 175.399)" font-size="6.99219">TX</text>
     <text font-family="DroidSans"  transform="matrix(1, 0, 0, 1, 193.847, 195.797)" font-size="6.99219">RX</text>
     <text font-family="DroidSans"  transform="matrix(1, 0, 0, 1, 192.854, 153.537)" font-size="6.99219">PWM</text>
     <text font-family="DroidSans"  transform="matrix(1, 0, 0, 1, 192.854, 132.199)" font-size="6.99219">PWM</text>
     <text font-family="DroidSans"  transform="matrix(1, 0, 0, 1, 192.854, 238.162)" font-size="6.99219">PWM</text>
     <text font-family="DroidSans"  transform="matrix(1, 0, 0, 1, 2.271, 259.4)" font-size="6.99219">PWM</text>
     <text font-family="DroidSans"  transform="matrix(1, 0, 0, 1, 2.271, 280.987)" font-size="6.99219">PWM</text>
     <text font-family="DroidSans"  transform="matrix(1, 0, 0, 1, 2.271, 323.935)" font-size="6.99219">PWM</text>
     <text font-family="DroidSans"  transform="matrix(1, 0, 0, 1, 166.416, 307.488)" font-size="9.98889">B2</text>
     <text font-family="DroidSans"  transform="matrix(1, 0, 0, 1, 166.416, 329.097)" font-size="9.98889">B1</text>
     <text font-family="DroidSans"  transform="matrix(1, 0, 0, 1, 166.416, 350.279)" font-size="9.98889">B0</text>
     <text font-family="DroidSans"  transform="matrix(0, -1, 1, 0, 152.748, 265.098)" font-size="9.98889">Digital Input/Output</text>
     <g >
      <text font-family="DroidSans"  transform="matrix(1, 0, 0, 1, 78.5712, 101.836)" font-size="17.98">Teensy</text>
      <text font-family="DroidSans"  transform="matrix(1, 0, 0, 1, 93.7504, 123.411)" font-size="17.98">2.0</text>
     </g>
     <line fill="none"  stroke="#000000" stroke-linejoin="round" stroke-linecap="round" y1="411.12" stroke-width="1.9517" x1="106.064" y2="389.883" x2="106.064"/>
     <text font-family="DroidSans"  transform="matrix(1, 0, 0, 1, 95.559, 379.695)" font-size="9.98889">GND</text>
     <polygon points="203.49,170.503,208.197,173.219,203.49,175.937" />
     <polygon points="208.197,196.548,203.49,193.825,208.197,191.11" />
     <line fill="none"  stroke="#000000" stroke-linejoin="round" stroke-linecap="round" y1="92.6309" stroke-width="2.415" x1="210.881" y2="92.6309" x2="189.639"/>
     <text font-family="DroidSans"  transform="matrix(1, 0, 0, 1, 167.422, 95.4862)" font-size="9.98889">E6</text>
     <rect width="2.099" x="105.015" y="7.71099" fill="none"  height="10.487" id="connector30pin"/>
     <rect width="2.099" x="105.015" y="7.71099" fill="none"  height="1.995"/>
     <rect width="10.487" x="1.245" y="132.966" fill="none"  height="2.1" id="connector29pin"/>
     <rect width="1.995" x="1.245" y="132.966" fill="none"  height="2.1"/>
     <rect width="10.487" x="1.245" y="154.205" fill="none"  height="2.101" id="connector28pin"/>
     <rect width="1.995" x="1.245" y="154.205" fill="none"  height="2.101"/>
     <rect width="10.487" x="1.245" y="175.101" fill="none"  height="2.103" id="connector27pin"/>
     <rect width="1.995" x="1.245" y="175.101" fill="none"  height="2.103"/>
     <rect width="10.486" x="1.169" y="91.3619" fill="none"  height="2.1" id="connector26pin"/>
     <rect width="1.994" x="1.169" y="91.3619" fill="none"  height="2.1"/>
     <rect width="10.487" x="1.245" y="196.673" fill="none"  height="2.101" id="connector25pin"/>
     <rect width="1.995" x="1.245" y="196.673" fill="none"  height="2.101"/>
     <rect width="10.487" x="1.245" y="218.3" fill="none"  height="2.101" id="connector24pin"/>
     <rect width="1.995" x="1.245" y="218.3" fill="none"  height="2.101"/>
     <rect width="10.487" x="1.245" y="239.902" fill="none"  height="2.1" id="connector23pin"/>
     <rect width="1.995" x="1.245" y="239.902" fill="none"  height="2.1"/>
     <rect width="10.487" x="1.245" y="261.505" fill="none"  height="2.101" id="connector22pin"/>
     <rect width="1.995" x="1.245" y="261.505" fill="none"  height="2.101"/>
     <rect width="10.487" x="1.245" y="283.102" fill="none"  height="2.102" id="connector21pin"/>
     <rect width="1.995" x="1.245" y="283.102" fill="none"  height="2.102"/>
     <rect width="10.487" x="1.245" y="304.7" fill="none"  height="2.102" id="connector20pin"/>
     <rect width="1.995" x="1.245" y="304.7" fill="none"  height="2.102"/>
     <rect width="10.487" x="1.245" y="326.301" fill="none"  height="2.101" id="connector19pin"/>
     <rect width="1.995" x="1.245" y="326.301" fill="none"  height="2.101"/>
     <rect width="10.487" x="1.245" y="347.901" fill="none"  height="2.101" id="connector18pin"/>
     <rect width="1.995" x="1.245" y="347.901" fill="none"  height="2.101"/>
     <rect width="10.487" x="1.245" y="369.502" fill="none"  height="2.1" id="connector17pin"/>
     <rect width="1.995" x="1.245" y="369.502" fill="none"  height="2.1"/>
     <rect width="10.488" x="1.275" y="70.505" fill="none"  height="2.099" id="connector16pin"/>
     <rect width="1.995" x="1.275" y="70.505" fill="none"  height="2.099"/>
     <rect width="2.099" x="105.015" y="400.633" fill="none"  height="10.485" id="connector15pin"/>
     <rect width="2.099" x="105.015" y="409.128" fill="none"  height="1.992"/>
     <rect width="2.099" x="105.015" y="7.71099" fill="none"  height="10.487" id="connector14pin"/>
     <rect width="2.099" x="105.015" y="7.71099" fill="none"  height="1.995"/>
     <rect width="10.487" x="200.318" y="112.764" fill="none"  height="2.099" id="connector13pin"/>
     <rect width="1.992" x="208.814" y="112.764" fill="none"  height="2.099"/>
     <rect width="10.487" x="200.318" y="134.003" fill="none"  height="2.098" id="connector12pin"/>
     <rect width="1.992" x="208.814" y="134.003" fill="none"  height="2.098"/>
     <rect width="10.487" x="200.318" y="155.237" fill="none"  height="2.101" id="connector11pin"/>
     <rect width="1.992" x="208.814" y="155.237" fill="none"  height="2.101"/>
     <rect width="10.487" x="200.318" y="176.474" fill="none"  height="2.099" id="connector10pin"/>
     <rect width="1.992" x="208.814" y="176.474" fill="none"  height="2.099"/>
     <rect width="10.487" x="200.318" y="197.711" fill="none"  height="2.099" id="connector9pin"/>
     <rect width="1.992" x="208.814" y="197.711" fill="none"  height="2.099"/>
     <rect width="10.487" x="200.318" y="218.946" fill="none"  height="2.103" id="connector8pin"/>
     <rect width="1.992" x="208.814" y="218.946" fill="none"  height="2.103"/>
     <rect width="10.487" x="200.318" y="240.184" fill="none"  height="2.104" id="connector7pin"/>
     <rect width="1.992" x="208.814" y="240.184" fill="none"  height="2.104"/>
     <rect width="10.487" x="200.318" y="261.421" fill="none"  height="2.099" id="connector6pin"/>
     <rect width="1.992" x="208.814" y="261.421" fill="none"  height="2.099"/>
     <rect width="10.486" x="200.393" y="91.4119" fill="none"  height="2.1" id="connector5pin"/>
     <rect width="1.99" x="208.889" y="91.4119" fill="none"  height="2.1"/>
     <rect width="10.487" x="200.318" y="282.655" fill="none"  height="2.103" id="connector4pin"/>
     <rect width="1.992" x="208.814" y="282.655" fill="none"  height="2.103"/>
     <rect width="10.487" x="200.318" y="303.893" fill="none"  height="2.101" id="connector3pin"/>
     <rect width="1.992" x="208.814" y="303.893" fill="none"  height="2.101"/>
     <rect width="10.487" x="200.318" y="325.126" fill="none"  height="2.103" id="connector2pin"/>
     <rect width="1.992" x="208.814" y="325.126" fill="none"  height="2.103"/>
     <rect width="10.487" x="200.318" y="346.362" fill="none"  height="2.102" id="connector1pin"/>
     <rect width="1.992" x="208.814" y="346.362" fill="none"  height="2.102"/>
     <rect width="2.099" x="105.015" y="400.633" fill="none"  height="10.485" id="connector0pin"/>
     <rect width="2.099" x="105.015" y="409.128" fill="none"  height="1.992"/>
    </g>
   </g>
  </g>
 </g>
 <g partID="64380">
  <g transform="translate(805.086,404.217)">
   <g  id="schematic">
    <rect width="2" x="26.65" y="78.6499" fill="none"  height="9.99998" id="connector0pin"/>
    <rect width="2" x="26.65" y="1.15" fill="none"  height="9.99998" id="connector1pin"/>
    <rect width="2" x="26.65" y="86.6498" fill="none"  height="2" id="connector0terminal"/>
    <rect width="2" x="26.65" y="1.15" fill="none"  height="2" id="connector1terminal"/>
    <g  id="text">
     <g >
      <path  d="M19.31,62.9809l1.114,0l0,6.59699L19.31,69.5779L19.31,62.9809z"/>
     </g>
     <g >
      <path  d="M19.333,25.547l-2.34,0l0,-1.211l2.34,0l0,-2.195L20.4,22.141l0,2.195l2.326,0l0,1.211L20.4,25.547l0,2.207l-1.066,0L19.333,25.547L19.333,25.547z"/>
     </g>
    </g>
    <g  id="diagram">
     <line fill="none"  stroke="#000000" stroke-linejoin="round" stroke-linecap="round" y1="1.15" stroke-width="2.3" x1="27.65" y2="32.1499" x2="27.65"/>
     <line fill="none"  stroke="#000000" stroke-linejoin="round" stroke-linecap="round" y1="57.6499" stroke-width="2.3" x1="27.65" y2="88.6498" x2="27.65"/>
     <line fill="none"  stroke="#000000" stroke-linejoin="round" stroke-linecap="round" y1="32.1499" stroke-width="2.3" x1="53.15" y2="32.1499" x2="1.15"/>
     <line fill="none"  stroke="#000000" stroke-linejoin="round" stroke-linecap="round" y1="40.6499" stroke-width="2.3" x1="41.817" y2="40.6499" x2="12.483"/>
     <line fill="none"  stroke="#000000" stroke-linejoin="round" stroke-linecap="round" y1="49.1499" stroke-width="2.3" x1="53.15" y2="49.1499" x2="1.15"/>
     <line fill="none"  stroke="#000000" stroke-linejoin="round" stroke-linecap="round" y1="57.6499" stroke-width="2.3" x1="41.817" y2="57.6499" x2="12.483"/>
    </g>
   </g>
  </g>
 </g>
 <g partID="97960">
  <g transform="translate(535.517,386.648)">
   <g transform="matrix(0,-1,1,0,0,0)">
    <g  id="schematic" transform="matrix(1, 0, 0, 1, 0, 18.4002)">
     <rect width="86.4" x="22.68" y="1.08" fill="none"  height="194.4" stroke="#000000" style="stroke-linecap:round;stroke-linejoin:round" id="rect2913" stroke-width="2.16"/>
     <text x="65.88" y="-3.89285" fill="#000000"  stroke="none" style="text-anchor:middle;font-family:DroidSans" id="label" font-size="0">L293D</text>
     <line fill="none"  stroke="#000000" style="stroke-linecap:round;stroke-linejoin:round" id="line2916" y1="22.68" x1="1.08" y2="22.68" stroke-width="2.16" x2="21.6"/>
     <rect width="21.6" x="0" y="21.6" fill="none"  height="2.16" id="connector0pin" stroke-width="0"/>
     <rect width="2.16" x="0" y="21.6" fill="none"  height="2.16" id="connector0terminal" stroke-width="0"/>
     <g fill="#000000"  stroke="none" style="text-anchor:start;font-family:DroidSans;text-align:start;writing-mode:lr;line-height:125%" id="label0" font-size="10">
      <text x="28.08" y="25.2"  id="tspan3323">EN1</text>
     </g>
     <line fill="none"  stroke="#000000" style="stroke-linecap:round;stroke-linejoin:round" id="line2921" y1="22.68" x1="109.08" y2="22.68" stroke-width="2.16" x2="130.68"/>
     <rect width="21.6" x="110.16" y="21.6" fill="none"  height="2.16" id="connector15pin" stroke-width="0"/>
     <rect width="2.16" x="131.76" y="21.6" fill="none"  height="2.16" id="connector15terminal" stroke-width="0"/>
     <g fill="#000000"  stroke="none" style="text-anchor:end;font-family:DroidSans;text-align:end;writing-mode:lr;line-height:125%" id="label15" font-size="10">
      <text x="103.68" y="25.2"  id="tspan3335">+V</text>
     </g>
     <line fill="none"  stroke="#000000" style="stroke-linecap:round;stroke-linejoin:round" id="line2926" y1="44.28" x1="1.08" y2="44.28" stroke-width="2.16" x2="21.6"/>
     <rect width="21.6" x="0" y="43.2" fill="none"  height="2.16" id="connector1pin" stroke-width="0"/>
     <rect width="2.16" x="0" y="43.2" fill="none"  height="2.16" id="connector1terminal" stroke-width="0"/>
     <g fill="#000000"  stroke="none" style="text-anchor:start;font-family:DroidSans;text-align:start;writing-mode:lr;line-height:125%" id="label1" font-size="10">
      <text x="28.08" y="46.8"  id="tspan3325">IN1</text>
     </g>
     <line fill="none"  stroke="#000000" style="stroke-linecap:round;stroke-linejoin:round" id="line2931" y1="44.28" x1="109.08" y2="44.28" stroke-width="2.16" x2="130.68"/>
     <rect width="21.6" x="110.16" y="43.2" fill="none"  height="2.16" id="connector14pin" stroke-width="0"/>
     <rect width="2.16" x="131.76" y="43.2" fill="none"  height="2.16" id="connector14terminal" stroke-width="0"/>
     <g fill="#000000"  stroke="none" style="text-anchor:end;font-family:DroidSans;text-align:end;writing-mode:lr;line-height:125%" id="label14" font-size="10">
      <text x="103.68" y="46.8"  id="tspan3337">IN4</text>
     </g>
     <line fill="none"  stroke="#000000" style="stroke-linecap:round;stroke-linejoin:round" id="line2936" y1="65.88" x1="1.08" y2="65.88" stroke-width="2.16" x2="21.6"/>
     <rect width="21.6" x="0" y="64.8" fill="none"  height="2.16" id="connector2pin" stroke-width="0"/>
     <rect width="2.16" x="0" y="64.8" fill="none"  height="2.16" id="connector2terminal" stroke-width="0"/>
     <g fill="#000000"  stroke="none" style="text-anchor:start;font-family:DroidSans;text-align:start;writing-mode:lr;line-height:125%" id="label2" font-size="10">
      <text x="28.08" y="68.4"  id="tspan3327">OUT1</text>
     </g>
     <line fill="none"  stroke="#000000" style="stroke-linecap:round;stroke-linejoin:round" id="line2941" y1="65.88" x1="109.08" y2="65.88" stroke-width="2.16" x2="130.68"/>
     <rect width="21.6" x="110.16" y="64.8" fill="none"  height="2.16" id="connector13pin" stroke-width="0"/>
     <rect width="2.16" x="131.76" y="64.8" fill="none"  height="2.16" id="connector13terminal" stroke-width="0"/>
     <g fill="#000000"  stroke="none" style="text-anchor:end;font-family:DroidSans;text-align:end;writing-mode:lr;line-height:125%" id="label13" font-size="10">
      <text x="103.68" y="68.4"  id="tspan3339">OUT4</text>
     </g>
     <line fill="none"  stroke="#000000" style="stroke-linecap:round;stroke-linejoin:round" id="line2946" y1="87.48" x1="1.08" y2="87.48" stroke-width="2.16" x2="21.6"/>
     <rect width="21.6" x="0" y="86.4" fill="none"  height="2.16" id="connector3pin" stroke-width="0"/>
     <rect width="2.16" x="0" y="86.4" fill="none"  height="2.16" id="connector3terminal" stroke-width="0"/>
     <g fill="#000000"  stroke="none" style="text-anchor:start;font-family:DroidSans;text-align:start;writing-mode:lr;line-height:125%" id="label3" font-size="10">
      <text x="28.08" y="90"  id="tspan3313">0V</text>
     </g>
     <line fill="none"  stroke="#000000" style="stroke-linecap:round;stroke-linejoin:round" id="line2951" y1="87.48" x1="109.08" y2="87.48" stroke-width="2.16" x2="130.68"/>
     <rect width="21.6" x="110.16" y="86.4" fill="none"  height="2.16" id="connector12pin" stroke-width="0"/>
     <rect width="2.16" x="131.76" y="86.4" fill="none"  height="2.16" id="connector12terminal" stroke-width="0"/>
     <g fill="#000000"  stroke="none" style="text-anchor:end;font-family:DroidSans;text-align:end;writing-mode:lr;line-height:125%" id="label12" font-size="10">
      <text x="103.68" y="90"  id="tspan3347">0V</text>
     </g>
     <line fill="none"  stroke="#000000" style="stroke-linecap:round;stroke-linejoin:round" id="line2956" y1="109.08" x1="1.08" y2="109.08" stroke-width="2.16" x2="21.6"/>
     <rect width="21.6" x="0" y="108" fill="none"  height="2.16" id="connector4pin" stroke-width="0"/>
     <rect width="2.16" x="0" y="108" fill="none"  height="2.16" id="connector4terminal" stroke-width="0"/>
     <g fill="#000000"  stroke="none" style="text-anchor:start;font-family:DroidSans;text-align:start;writing-mode:lr;line-height:125%" id="label4" font-size="10">
      <text x="28.08" y="111.6"  id="tspan3321">0V</text>
     </g>
     <line fill="none"  stroke="#000000" style="stroke-linecap:round;stroke-linejoin:round" id="line2961" y1="109.08" x1="109.08" y2="109.08" stroke-width="2.16" x2="130.68"/>
     <rect width="21.6" x="110.16" y="108" fill="none"  height="2.16" id="connector11pin" stroke-width="0"/>
     <rect width="2.16" x="131.76" y="108" fill="none"  height="2.16" id="connector11terminal" stroke-width="0"/>
     <g fill="#000000"  stroke="none" style="text-anchor:end;font-family:DroidSans;text-align:end;writing-mode:lr;line-height:125%" id="label11" font-size="10">
      <text x="103.68" y="111.6"  id="tspan3349">0V</text>
     </g>
     <line fill="none"  stroke="#000000" style="stroke-linecap:round;stroke-linejoin:round" id="line2966" y1="130.68" x1="1.08" y2="130.68" stroke-width="2.16" x2="21.6"/>
     <rect width="21.6" x="0" y="129.6" fill="none"  height="2.16" id="connector5pin" stroke-width="0"/>
     <rect width="2.16" x="0" y="129.6" fill="none"  height="2.16" id="connector5terminal" stroke-width="0"/>
     <g fill="#000000"  stroke="none" style="text-anchor:start;font-family:DroidSans;text-align:start;writing-mode:lr;line-height:125%" id="label5" font-size="10">
      <text x="28.08" y="133.2"  id="tspan3329">OUT2</text>
     </g>
     <line fill="none"  stroke="#000000" style="stroke-linecap:round;stroke-linejoin:round" id="line2971" y1="130.68" x1="109.08" y2="130.68" stroke-width="2.16" x2="130.68"/>
     <rect width="21.6" x="110.16" y="129.6" fill="none"  height="2.16" id="connector10pin" stroke-width="0"/>
     <rect width="2.16" x="131.76" y="129.6" fill="none"  height="2.16" id="connector10terminal" stroke-width="0"/>
     <g fill="#000000"  stroke="none" style="text-anchor:end;font-family:DroidSans;text-align:end;writing-mode:lr;line-height:125%" id="label10" font-size="10">
      <text x="103.68" y="133.2"  id="tspan3341">OUT3</text>
     </g>
     <line fill="none"  stroke="#000000" style="stroke-linecap:round;stroke-linejoin:round" id="line2976" y1="152.28" x1="1.08" y2="152.28" stroke-width="2.16" x2="21.6"/>
     <rect width="21.6" x="0" y="151.2" fill="none"  height="2.16" id="connector6pin" stroke-width="0"/>
     <rect width="2.16" x="0" y="151.2" fill="none"  height="2.16" id="connector6terminal" stroke-width="0"/>
     <g fill="#000000"  stroke="none" style="text-anchor:start;font-family:DroidSans;text-align:start;writing-mode:lr;line-height:125%" id="label6" font-size="10">
      <text x="28.08" y="154.8"  id="tspan3331">IN2</text>
     </g>
     <line fill="none"  stroke="#000000" style="stroke-linecap:round;stroke-linejoin:round" id="line2981" y1="152.28" x1="109.08" y2="152.28" stroke-width="2.16" x2="130.68"/>
     <rect width="21.6" x="110.16" y="151.2" fill="none"  height="2.16" id="connector9pin" stroke-width="0"/>
     <rect width="2.16" x="131.76" y="151.2" fill="none"  height="2.16" id="connector9terminal" stroke-width="0"/>
     <g fill="#000000"  stroke="none" style="text-anchor:end;font-family:DroidSans;text-align:end;writing-mode:lr;line-height:125%" id="label9" font-size="10">
      <text x="103.68" y="154.8"  id="tspan3343">IN3</text>
     </g>
     <line fill="none"  stroke="#000000" style="stroke-linecap:round;stroke-linejoin:round" id="line2986" y1="173.88" x1="1.08" y2="173.88" stroke-width="2.16" x2="21.6"/>
     <rect width="21.6" x="0" y="172.8" fill="none"  height="2.16" id="connector7pin" stroke-width="0"/>
     <rect width="2.16" x="0" y="172.8" fill="none"  height="2.16" id="connector7terminal" stroke-width="0"/>
     <g fill="#000000"  stroke="none" style="text-anchor:start;font-family:DroidSans;text-align:start;writing-mode:lr;line-height:125%" id="label7" font-size="10">
      <text x="28.08" y="176.4"  id="tspan3351">+Vmotor</text>
     </g>
     <line fill="none"  stroke="#000000" style="stroke-linecap:round;stroke-linejoin:round" id="line2991" y1="173.88" x1="109.08" y2="173.88" stroke-width="2.16" x2="130.68"/>
     <rect width="21.6" x="110.16" y="172.8" fill="none"  height="2.16" id="connector8pin" stroke-width="0"/>
     <rect width="2.16" x="131.76" y="172.8" fill="none"  height="2.16" id="connector8terminal" stroke-width="0"/>
     <g fill="#000000"  stroke="none" style="text-anchor:end;font-family:DroidSans;text-align:end;writing-mode:lr;line-height:125%" id="label8" font-size="10">
      <text x="103.68" y="176.4"  id="tspan3345">EN2</text>
     </g>
     <text x="-168.012" y="-108.264" fill="#000000"  stroke="none" style="text-anchor:middle;font-family:DroidSans" id="label-7" font-size="0">L293D</text>
     <text x="124.754" y="18.8283" fill="#000000"  stroke="none" style="text-anchor:end;font-family:DroidSans" id="label15-4-0" font-size="0">16</text>
     <text x="124.754" y="40.4283" fill="#000000"  stroke="none" style="text-anchor:end;font-family:DroidSans" id="label14-2-2" font-size="0">15</text>
     <text x="124.754" y="62.0283" fill="#000000"  stroke="none" style="text-anchor:end;font-family:DroidSans" id="label13-2-4" font-size="0">14</text>
     <text x="124.754" y="83.6283" fill="#000000"  stroke="none" style="text-anchor:end;font-family:DroidSans" id="label12-8-8" font-size="0">13</text>
     <text x="124.754" y="105.228" fill="#000000"  stroke="none" style="text-anchor:end;font-family:DroidSans" id="label11-1-6" font-size="0">12</text>
     <text x="124.754" y="126.828" fill="#000000"  stroke="none" style="text-anchor:end;font-family:DroidSans" id="label10-8-5" font-size="0">11</text>
     <text x="124.754" y="148.428" fill="#000000"  stroke="none" style="text-anchor:end;font-family:DroidSans" id="label9-1-0" font-size="0">10</text>
     <text x="124.754" y="170.028" fill="#000000"  stroke="none" style="text-anchor:end;font-family:DroidSans" id="label8-6-9" font-size="0">9</text>
     <text x="11.6438" y="19.0625" fill="#000000"  stroke="none" style="text-anchor:start;font-family:DroidSans" id="label0-4-0" font-size="0">1</text>
     <text x="11.6438" y="40.6625" fill="#000000"  stroke="none" style="text-anchor:start;font-family:DroidSans" id="label1-7-0" font-size="0">2</text>
     <text x="11.6438" y="62.2625" fill="#000000"  stroke="none" style="text-anchor:start;font-family:DroidSans" id="label2-4-6" font-size="0">3</text>
     <text x="11.6438" y="83.8625" fill="#000000"  stroke="none" style="text-anchor:start;font-family:DroidSans" id="label3-5-1" font-size="0">4</text>
     <text x="11.6438" y="105.462" fill="#000000"  stroke="none" style="text-anchor:start;font-family:DroidSans" id="label4-9-3" font-size="0">5</text>
     <text x="11.6438" y="127.062" fill="#000000"  stroke="none" style="text-anchor:start;font-family:DroidSans" id="label5-4-8" font-size="0">6</text>
     <text x="11.6438" y="148.662" fill="#000000"  stroke="none" style="text-anchor:start;font-family:DroidSans" id="label6-7-9" font-size="0">7</text>
     <text x="11.6438" y="170.262" fill="#000000"  stroke="none" style="text-anchor:start;font-family:DroidSans" id="label7-5-3" font-size="0">8</text>
    </g>
   </g>
  </g>
 </g>
 <g partID="104010">
  <g transform="translate(707.327,622.317)">
   <g transform="matrix(-1,0,0,-1,0,0)">
    <g  id="schematic">
     <rect width="9.99997" x="1.15" y="23.15" fill="none"  height="2" id="connector0pin"/>
     <rect width="9.99997" x="99.1497" y="23.15" fill="none"  height="2" id="connector1pin"/>
     <rect width="1.99999" x="1.15" y="23.15" fill="none"  height="2" id="connector0terminal"/>
     <rect width="1.99999" x="107.15" y="23.15" fill="none"  height="2" id="connector1terminal"/>
     <g  id="diagram">
      <circle fill="none" cx="55.1498"  cy="24.15" stroke="#000000" r="22.9999" stroke-width="2.29999"/>
      <line fill="none"  stroke="#000000" stroke-linejoin="round" stroke-linecap="round" y1="24.15" stroke-width="2.29999" x1="1.15" y2="24.15" x2="32.1499"/>
      <line fill="none"  stroke="#000000" stroke-linejoin="round" stroke-linecap="round" y1="24.15" stroke-width="2.29999" x1="78.1498" y2="24.15" x2="109.15"/>
     </g>
     <g  id="text">
      <g >
       <path  d="M62.0408,31.152l-1.272,-8.617c-0.239999,-1.632,-0.383999,-2.904,-0.504999,-3.96l-0.0469999,0c-0.191999,0.912,-0.432999,1.944,-0.839998,3.168l-3.04899,9.409l-2.71199,0l-2.90399,-8.76c-0.455999,-1.344,-0.791998,-2.592,-1.032,-3.816l-0.0479999,0c-0.0959997,1.393,-0.263999,2.664,-0.431999,4.2l-1.032,8.376l-2.66499,0l2.42399,-16.201l3.11999,0l3.12099,9.36c0.287999,0.913,0.623998,2.088,0.911997,3.313l0.0239999,0c0.287999,-1.201,0.527998,-2.113,0.911997,-3.216l3.16799,-9.457l3.14499,0L64.7998,31.152L62.0408,31.152z"/>
      </g>
     </g>
    </g>
   </g>
  </g>
 </g>
 <g partID="104930">
  <g transform="translate(596.728,0)">
   <g  id="schematic">
    <rect width="9.99997" x="1.15" y="23.15" fill="none"  height="2" id="connector0pin"/>
    <rect width="9.99997" x="99.1497" y="23.15" fill="none"  height="2" id="connector1pin"/>
    <rect width="1.99999" x="1.15" y="23.15" fill="none"  height="2" id="connector0terminal"/>
    <rect width="1.99999" x="107.15" y="23.15" fill="none"  height="2" id="connector1terminal"/>
    <g  id="diagram">
     <circle fill="none" cx="55.1498"  cy="24.15" stroke="#000000" r="22.9999" stroke-width="2.29999"/>
     <line fill="none"  stroke="#000000" stroke-linejoin="round" stroke-linecap="round" y1="24.15" stroke-width="2.29999" x1="1.15" y2="24.15" x2="32.1499"/>
     <line fill="none"  stroke="#000000" stroke-linejoin="round" stroke-linecap="round" y1="24.15" stroke-width="2.29999" x1="78.1498" y2="24.15" x2="109.15"/>
    </g>
    <g  id="text">
     <g >
      <path  d="M62.0408,31.152l-1.272,-8.617c-0.239999,-1.632,-0.383999,-2.904,-0.504999,-3.96l-0.0469999,0c-0.191999,0.912,-0.432999,1.944,-0.839998,3.168l-3.04899,9.409l-2.71199,0l-2.90399,-8.76c-0.455999,-1.344,-0.791998,-2.592,-1.032,-3.816l-0.0479999,0c-0.0959997,1.393,-0.263999,2.664,-0.431999,4.2l-1.032,8.376l-2.66499,0l2.42399,-16.201l3.11999,0l3.12099,9.36c0.287999,0.913,0.623998,2.088,0.911997,3.313l0.0239999,0c0.287999,-1.201,0.527998,-2.113,0.911997,-3.216l3.16799,-9.457l3.14499,0L64.7998,31.152L62.0408,31.152z"/>
     </g>
    </g>
   </g>
  </g>
 </g>
 <g partID="105800">
  <line stroke="#404040" stroke-linecap="round" y1="24.15" x1="598.878" y2="253.808" stroke-width="2.4" x2="619.797"/>
 </g>
 <g partID="105840">
  <line stroke="#404040" stroke-linecap="round" y1="24.15" x1="704.877" y2="253.808" stroke-width="2.4" x2="684.598"/>
 </g>
 <g partID="105920">
  <line stroke="#404040" stroke-linecap="round" y1="598.167" x1="705.177" y2="385.568" stroke-width="2.4" x2="684.598"/>
 </g>
 <g partID="105960">
  <line stroke="#404040" stroke-linecap="round" y1="598.167" x1="599.177" y2="385.568" stroke-width="2.4" x2="619.797"/>
 </g>
 <g partID="107560">
  <line stroke="#404040" stroke-linecap="round" y1="385.568" x1="727.798" y2="406.367" stroke-width="2.4" x2="832.736"/>
 </g>
 <g partID="108550">
  <line stroke="#404040" stroke-linecap="round" y1="534.191" x1="641.359" y2="385.568" stroke-width="2.4" x2="641.397"/>
 </g>
 <circle fill="black" cx="641.397" cy="385.568" stroke="none" r="3.6" stroke-width="0"/>
 <g partID="108630">
  <line stroke="#404040" stroke-linecap="round" y1="534.191" x1="3.75929" y2="534.191" stroke-width="2.4" x2="641.359"/>
 </g>
 <g partID="108560">
  <line stroke="#404040" stroke-linecap="round" y1="300.528" x1="3.60134" y2="534.191" stroke-width="2.4" x2="3.75929"/>
 </g>
 <g partID="108760">
  <line stroke="#404040" stroke-linecap="round" y1="172.591" x1="726.159" y2="253.808" stroke-width="2.4" x2="727.798"/>
 </g>
 <g partID="108820">
  <line stroke="#404040" stroke-linecap="round" y1="172.591" x1="279.759" y2="172.591" stroke-width="2.4" x2="726.159"/>
 </g>
 <g partID="108770">
  <line stroke="#404040" stroke-linecap="round" y1="200.952" x1="275.461" y2="172.591" stroke-width="2.4" x2="279.759"/>
 </g>
 <g partID="108890">
  <line stroke="#404040" stroke-linecap="round" y1="151.791" x1="705.359" y2="253.808" stroke-width="2.4" x2="706.198"/>
 </g>
 <g partID="108950">
  <line stroke="#404040" stroke-linecap="round" y1="151.791" x1="237.359" y2="151.791" stroke-width="2.4" x2="705.359"/>
 </g>
 <g partID="108900">
  <line stroke="#404040" stroke-linecap="round" y1="200.952" x1="233.324" y2="151.791" stroke-width="2.4" x2="237.359"/>
 </g>
 <g partID="109020">
  <line stroke="#404040" stroke-linecap="round" y1="130.191" x1="598.959" y2="253.808" stroke-width="2.4" x2="598.197"/>
 </g>
 <g partID="109030">
  <line stroke="#404040" stroke-linecap="round" y1="200.952" x1="254.221" y2="130.191" stroke-width="2.4" x2="258.959"/>
 </g>
 <g partID="109080">
  <line stroke="#404040" stroke-linecap="round" y1="130.191" x1="258.959" y2="130.191" stroke-width="2.4" x2="598.959"/>
 </g>
 <g partID="109150">
  <line stroke="#404040" stroke-linecap="round" y1="449.391" x1="216.559" y2="200.952" stroke-width="2.4" x2="211.753"/>
 </g>
 <g partID="109160">
  <line stroke="#404040" stroke-linecap="round" y1="385.568" x1="576.597" y2="449.391" stroke-width="2.4" x2="577.359"/>
 </g>
 <g partID="109210">
  <line stroke="#404040" stroke-linecap="round" y1="449.391" x1="577.359" y2="449.391" stroke-width="2.4" x2="216.559"/>
 </g>
 <g partID="109280">
  <line stroke="#404040" stroke-linecap="round" y1="470.991" x1="598.959" y2="385.568" stroke-width="2.4" x2="598.197"/>
 </g>
 <g partID="109290">
  <line stroke="#404040" stroke-linecap="round" y1="200.952" x1="190.126" y2="470.991" stroke-width="2.4" x2="194.959"/>
 </g>
 <g partID="109340">
  <line stroke="#404040" stroke-linecap="round" y1="470.991" x1="194.959" y2="470.991" stroke-width="2.4" x2="598.959"/>
 </g>
 <g partID="109430">
  <line stroke="#404040" stroke-linecap="round" y1="491.791" x1="705.359" y2="385.568" stroke-width="2.4" x2="706.198"/>
 </g>
 <g partID="109440">
  <line stroke="#404040" stroke-linecap="round" y1="200.952" x1="168.525" y2="491.791" stroke-width="2.4" x2="173.359"/>
 </g>
 <g partID="109490">
  <line stroke="#404040" stroke-linecap="round" y1="491.791" x1="173.359" y2="491.791" stroke-width="2.4" x2="705.359"/>
 </g>
 <g partID="109680">
  <line stroke="#404040" stroke-linecap="round" y1="258.191" x1="407.759" y2="300.528" stroke-width="2.4" x2="396.522"/>
 </g>
 <g partID="109690">
  <line stroke="#404040" stroke-linecap="round" y1="253.808" x1="576.597" y2="258.191" stroke-width="2.4" x2="407.759"/>
 </g>
 <g partID="109740">
  <line stroke="#404040" stroke-linecap="round" y1="385.568" x1="641.397" y2="385.568" stroke-width="2.4" x2="662.998"/>
 </g>
 <circle fill="black" cx="641.397" cy="385.568" stroke="none" r="3.6" stroke-width="0"/>
 <circle fill="black" cx="662.998" cy="385.568" stroke="none" r="3.6" stroke-width="0"/>
 <g partID="109810">
  <line stroke="#404040" stroke-linecap="round" y1="253.808" x1="641.397" y2="253.808" stroke-width="2.4" x2="662.998"/>
 </g>
 <g partID="110160">
  <line stroke="#404040" stroke-linecap="round" y1="491.868" x1="832.736" y2="502.417" stroke-width="2.4" x2="832.736"/>
 </g>
 <g partID="110180">
  <line stroke="#404040" stroke-linecap="round" y1="502.417" x1="832.736" y2="502.417" stroke-width="2.4" x2="662.998"/>
 </g>
 <g partID="110200">
  <line stroke="#404040" stroke-linecap="round" y1="502.417" x1="662.998" y2="385.568" stroke-width="2.4" x2="662.998"/>
 </g>
 <circle fill="black" cx="662.998" cy="385.568" stroke="none" r="3.6" stroke-width="0"/>
 <g id="partLabel" partID="104010">
  <g transform="translate(681.727,607.617)">
   <g fill="#000000" font-family="'DroidSans'" stroke="none" font-style="normal" fill-opacity="1" font-weight="normal" id="schematicLabel" font-size="9">
    <text x="0" y="6.75">M1</text>
   </g>
  </g>
 </g>
 <g id="partLabel" partID="104930">
  <g transform="translate(679.827,4.8)">
   <g fill="#000000" font-family="'DroidSans'" stroke="none" font-style="normal" fill-opacity="1" font-weight="normal" id="schematicLabel" font-size="9">
    <text x="0" y="6.75">M2</text>
   </g>
  </g>
 </g>
</svg>
